<svg xlink="http://www.w3.org/1999/xlink" viewBox="0 0 5000 5000" xmlns="http://www.w3.org/2000/svg" style="transform: scale(1);"><defs><filter id="goo"><feGaussianBlur in="SourceGraphic" stdDeviation="4.1" result="blur"></feGaussianBlur><feColorMatrix in="blur" type="matrix" values="1 0 0 0 0 0 1 0 0 0 0 0 1 0 0 0 0 0 19 -9" result="good"></feColorMatrix><feComposite in="SourceGraphic" in2="goo" operator="atop"></feComposite></filter><path d="M291,124C302,201 320,232 376,291C299,302 268,320 209,376C198,299 180,268 124,209C201,198 232,180 291,124z" id="P0"></path><path d="M250,431C203,336 167,302 69,250C164,203 198,167 250,69Q436,52 431,250L250,431z" id="P1"></path><path d="M373,258L242,373C214,306 192,282 127,242Q124,116 258,127Q384,124 373,258z" id="P2"></path><path d="M110,134Q216,-21 366,110Q521,216 390,366L134,390L110,134z" id="P3"></path><path d="M163,195C196,153 250,139 305,163C347,196 361,250 337,305L195,337C201,277 194,250 163,195z" id="P4"></path><path d="M152,321L179,152Q273,70 348,179L321,348Q227,430 152,321z" id="P5"></path><path d="M83,158C139,76 237,44 342,83L417,342L158,417C163,305 147,256 83,158z" id="P6"></path><path d="M135,323C177,255 184,219 177,135Q288,50 365,177C397,241 383,313 323,365Q212,450 135,323z" id="P7"></path></defs><rect id="RECT" width="5000" height="5000" fill="#4B4B4B"></rect><g id="group" fill="#FFFFFF" filter="url(#goo)" opacity="0.94"><use x="-98" y="-171" href="#P0"></use><use x="-175" y="-38" href="#P7"></use><use x="-187" y="116" href="#P7"></use><use x="-87" y="239" href="#P2"></use><use x="-174" y="451" href="#P1"></use><use x="-175" y="700" href="#P3"></use><use x="-194" y="827" href="#P3"></use><use x="-154" y="897" href="#P7"></use><use x="-136" y="1119" href="#P3"></use><use x="-86" y="1363" href="#P0"></use><use x="-223" y="1461" href="#P3"></use><use x="-145" y="1643" href="#P7"></use><use x="-208" y="1870" href="#P7"></use><use x="-178" y="2033" href="#P4"></use><use x="-136" y="2212" href="#P1"></use><use x="-141" y="2349" href="#P6"></use><use x="-206" y="2557" href="#P3"></use><use x="-178" y="2687" href="#P2"></use><use x="-140" y="2734" href="#P1"></use><use x="-194" y="2988" href="#P2"></use><use x="-195" y="3185" href="#P5"></use><use x="-198" y="3364" href="#P6"></use><use x="-125" y="3521" href="#P2"></use><use x="-216" y="3695" href="#P4"></use><use x="-163" y="3799" href="#P4"></use><use x="-199" y="4082" href="#P7"></use><use x="-215" y="4220" href="#P7"></use><use x="-178" y="4365" href="#P0"></use><use x="-258" y="4501" href="#P5"></use><use x="-182" y="4631" href="#P2"></use><use x="-155" y="4790" href="#P2"></use><use x="-260" y="4995" href="#P4"></use><use x="-104" y="5226" href="#P2"></use><use x="-55" y="-184" href="#P1"></use><use x="70" y="76" href="#P4"></use><use x="62" y="220" href="#P3"></use><use x="4" y="295" href="#P1"></use><use x="-66" y="439" href="#P0"></use><use x="-36" y="635" href="#P0"></use><use x="60" y="870" href="#P2"></use><use x="-56" y="1015" href="#P7"></use><use x="-63" y="1101" href="#P3"></use><use x="-78" y="1218" href="#P3"></use><use x="5" y="1462" href="#P5"></use><use x="52" y="1554" href="#P0"></use><use x="-25" y="1809" href="#P4"></use><use x="-63" y="1936" href="#P4"></use><use x="45" y="2217" href="#P5"></use><use x="55" y="2334" href="#P2"></use><use x="58" y="2456" href="#P2"></use><use x="-51" y="2601" href="#P0"></use><use x="22" y="2773" href="#P5"></use><use x="-56" y="3000" href="#P3"></use><use x="-33" y="3171" href="#P7"></use><use x="-54" y="3237" href="#P3"></use><use x="-87" y="3505" href="#P0"></use><use x="-105" y="3692" href="#P4"></use><use x="17" y="3757" href="#P4"></use><use x="8" y="4040" href="#P0"></use><use x="-21" y="4238" href="#P0"></use><use x="-74" y="4436" href="#P3"></use><use x="4" y="4546" href="#P4"></use><use x="-55" y="4760" href="#P2"></use><use x="14" y="4813" href="#P5"></use><use x="-21" y="5104" href="#P5"></use><use x="-66" y="5182" href="#P7"></use><use x="189" y="-85" href="#P5"></use><use x="225" y="-26" href="#P2"></use><use x="168" y="226" href="#P2"></use><use x="136" y="269" href="#P7"></use><use x="123" y="545" href="#P4"></use><use x="235" y="712" href="#P5"></use><use x="230" y="792" href="#P6"></use><use x="165" y="951" href="#P6"></use><use x="134" y="1192" href="#P6"></use><use x="185" y="1247" href="#P6"></use><use x="172" y="1445" href="#P7"></use><use x="81" y="1557" href="#P4"></use><use x="237" y="1747" href="#P0"></use><use x="186" y="1946" href="#P0"></use><use x="142" y="2214" href="#P5"></use><use x="164" y="2246" href="#P1"></use><use x="223" y="2509" href="#P5"></use><use x="100" y="2584" href="#P7"></use><use x="158" y="2745" href="#P4"></use><use x="161" y="2949" href="#P7"></use><use x="139" y="3143" href="#P3"></use><use x="190" y="3366" href="#P1"></use><use x="150" y="3420" href="#P7"></use><use x="151" y="3609" href="#P2"></use><use x="180" y="3822" href="#P1"></use><use x="208" y="4089" href="#P7"></use><use x="154" y="4241" href="#P0"></use><use x="214" y="4341" href="#P5"></use><use x="138" y="4563" href="#P6"></use><use x="143" y="4653" href="#P0"></use><use x="107" y="4937" href="#P0"></use><use x="160" y="5034" href="#P2"></use><use x="79" y="5254" href="#P3"></use><use x="245" y="-183" href="#P0"></use><use x="331" y="-28" href="#P0"></use><use x="261" y="228" href="#P0"></use><use x="304" y="272" href="#P1"></use><use x="310" y="503" href="#P0"></use><use x="380" y="639" href="#P6"></use><use x="328" y="837" href="#P7"></use><use x="367" y="941" href="#P2"></use><use x="255" y="1166" href="#P2"></use><use x="248" y="1374" href="#P2"></use><use x="263" y="1433" href="#P4"></use><use x="379" y="1709" href="#P0"></use><use x="354" y="1879" href="#P4"></use><use x="384" y="2023" href="#P5"></use><use x="339" y="2126" href="#P5"></use><use x="274" y="2305" href="#P7"></use><use x="309" y="2444" href="#P4"></use><use x="243" y="2695" href="#P0"></use><use x="312" y="2815" href="#P7"></use><use x="266" y="2952" href="#P0"></use><use x="369" y="3192" href="#P2"></use><use x="344" y="3402" href="#P1"></use><use x="350" y="3422" href="#P4"></use><use x="342" y="3615" href="#P1"></use><use x="374" y="3882" href="#P6"></use><use x="326" y="3939" href="#P7"></use><use x="227" y="4105" href="#P6"></use><use x="298" y="4299" href="#P7"></use><use x="278" y="4514" href="#P7"></use><use x="256" y="4674" href="#P5"></use><use x="354" y="4824" href="#P1"></use><use x="284" y="5003" href="#P0"></use><use x="312" y="5111" href="#P1"></use><use x="552" y="-87" href="#P1"></use><use x="464" y="-5" href="#P5"></use><use x="529" y="202" href="#P1"></use><use x="408" y="264" href="#P6"></use><use x="481" y="476" href="#P7"></use><use x="427" y="600" href="#P0"></use><use x="401" y="806" href="#P1"></use><use x="522" y="915" href="#P0"></use><use x="461" y="1081" href="#P1"></use><use x="516" y="1349" href="#P2"></use><use x="439" y="1419" href="#P3"></use><use x="545" y="1635" href="#P7"></use><use x="550" y="1839" href="#P3"></use><use x="418" y="1914" href="#P1"></use><use x="555" y="2249" href="#P4"></use><use x="572" y="2354" href="#P5"></use><use x="544" y="2422" href="#P4"></use><use x="497" y="2620" href="#P7"></use><use x="549" y="2797" href="#P5"></use><use x="507" y="2926" href="#P2"></use><use x="433" y="3095" href="#P5"></use><use x="504" y="3293" href="#P5"></use><use x="396" y="3514" href="#P1"></use><use x="389" y="3639" href="#P2"></use><use x="474" y="3861" href="#P4"></use><use x="396" y="3954" href="#P5"></use><use x="544" y="4264" href="#P6"></use><use x="551" y="4403" href="#P7"></use><use x="424" y="4538" href="#P2"></use><use x="542" y="4779" href="#P5"></use><use x="553" y="4918" href="#P3"></use><use x="530" y="4992" href="#P3"></use><use x="435" y="5277" href="#P1"></use><use x="597" y="-165" href="#P7"></use><use x="617" y="-14" href="#P6"></use><use x="614" y="106" href="#P6"></use><use x="577" y="264" href="#P7"></use><use x="667" y="558" href="#P5"></use><use x="607" y="699" href="#P3"></use><use x="634" y="731" href="#P1"></use><use x="713" y="982" href="#P1"></use><use x="601" y="1114" href="#P5"></use><use x="643" y="1388" href="#P2"></use><use x="672" y="1400" href="#P0"></use><use x="723" y="1644" href="#P2"></use><use x="641" y="1833" href="#P6"></use><use x="671" y="1997" href="#P1"></use><use x="594" y="2216" href="#P0"></use><use x="659" y="2250" href="#P5"></use><use x="607" y="2517" href="#P1"></use><use x="581" y="2619" href="#P7"></use><use x="574" y="2889" href="#P1"></use><use x="718" y="2973" href="#P1"></use><use x="601" y="3097" href="#P4"></use><use x="668" y="3280" href="#P3"></use><use x="647" y="3526" href="#P1"></use><use x="645" y="3577" href="#P7"></use><use x="622" y="3882" href="#P7"></use><use x="682" y="4041" href="#P5"></use><use x="643" y="4096" href="#P1"></use><use x="663" y="4297" href="#P5"></use><use x="583" y="4593" href="#P1"></use><use x="598" y="4729" href="#P4"></use><use x="591" y="4932" href="#P0"></use><use x="579" y="5078" href="#P1"></use><use x="736" y="5195" href="#P0"></use><use x="876" y="-102" href="#P7"></use><use x="787" y="4" href="#P4"></use><use x="810" y="131" href="#P6"></use><use x="855" y="293" href="#P4"></use><use x="798" y="469" href="#P3"></use><use x="858" y="632" href="#P4"></use><use x="862" y="869" href="#P1"></use><use x="746" y="954" href="#P0"></use><use x="734" y="1199" href="#P1"></use><use x="853" y="1339" href="#P0"></use><use x="811" y="1531" href="#P2"></use><use x="855" y="1562" href="#P2"></use><use x="879" y="1820" href="#P6"></use><use x="743" y="1984" href="#P7"></use><use x="781" y="2230" href="#P3"></use><use x="801" y="2328" href="#P6"></use><use x="760" y="2469" href="#P5"></use><use x="885" y="2552" href="#P1"></use><use x="822" y="2878" href="#P3"></use><use x="822" y="2937" href="#P6"></use><use x="745" y="3192" href="#P1"></use><use x="731" y="3230" href="#P0"></use><use x="876" y="3406" href="#P7"></use><use x="745" y="3595" href="#P6"></use><use x="846" y="3842" href="#P6"></use><use x="799" y="3951" href="#P0"></use><use x="814" y="4104" href="#P6"></use><use x="796" y="4324" href="#P7"></use><use x="742" y="4490" href="#P7"></use><use x="775" y="4750" href="#P1"></use><use x="760" y="4805" href="#P3"></use><use x="771" y="5034" href="#P3"></use><use x="873" y="5224" href="#P1"></use><use x="1015" y="-94" href="#P7"></use><use x="887" y="-16" href="#P2"></use><use x="919" y="80" href="#P5"></use><use x="1014" y="318" href="#P7"></use><use x="987" y="452" href="#P0"></use><use x="909" y="668" href="#P7"></use><use x="922" y="833" href="#P2"></use><use x="983" y="950" href="#P5"></use><use x="1044" y="1206" href="#P3"></use><use x="1005" y="1320" href="#P0"></use><use x="1069" y="1567" href="#P4"></use><use x="1073" y="1575" href="#P2"></use><use x="931" y="1752" href="#P4"></use><use x="966" y="2076" href="#P0"></use><use x="994" y="2096" href="#P0"></use><use x="1020" y="2285" href="#P1"></use><use x="1028" y="2483" href="#P0"></use><use x="952" y="2683" href="#P0"></use><use x="992" y="2720" href="#P5"></use><use x="983" y="2992" href="#P3"></use><use x="1038" y="3069" href="#P0"></use><use x="946" y="3290" href="#P5"></use><use x="936" y="3572" href="#P4"></use><use x="997" y="3750" href="#P2"></use><use x="1032" y="3762" href="#P3"></use><use x="994" y="3994" href="#P1"></use><use x="931" y="4148" href="#P0"></use><use x="1011" y="4279" href="#P4"></use><use x="1028" y="4521" href="#P3"></use><use x="921" y="4626" href="#P5"></use><use x="1013" y="4828" href="#P0"></use><use x="946" y="4977" href="#P5"></use><use x="1005" y="5274" href="#P6"></use><use x="1107" y="-228" href="#P3"></use><use x="1065" y="57" href="#P0"></use><use x="1192" y="199" href="#P7"></use><use x="1170" y="313" href="#P1"></use><use x="1137" y="408" href="#P6"></use><use x="1162" y="569" href="#P0"></use><use x="1161" y="871" href="#P0"></use><use x="1131" y="944" href="#P4"></use><use x="1196" y="1105" href="#P1"></use><use x="1080" y="1339" href="#P1"></use><use x="1166" y="1495" href="#P6"></use><use x="1076" y="1663" href="#P3"></use><use x="1075" y="1798" href="#P2"></use><use x="1086" y="2019" href="#P3"></use><use x="1232" y="2155" href="#P2"></use><use x="1177" y="2345" href="#P2"></use><use x="1194" y="2402" href="#P7"></use><use x="1216" y="2683" href="#P4"></use><use x="1208" y="2731" href="#P4"></use><use x="1101" y="2930" href="#P1"></use><use x="1225" y="3208" href="#P7"></use><use x="1129" y="3305" href="#P0"></use><use x="1228" y="3565" href="#P3"></use><use x="1220" y="3591" href="#P2"></use><use x="1236" y="3885" href="#P6"></use><use x="1201" y="3978" href="#P6"></use><use x="1226" y="4141" href="#P3"></use><use x="1084" y="4418" href="#P4"></use><use x="1085" y="4497" href="#P0"></use><use x="1176" y="4733" href="#P4"></use><use x="1152" y="4832" href="#P2"></use><use x="1078" y="5109" href="#P1"></use><use x="1148" y="5215" href="#P3"></use><use x="1216" y="-103" href="#P2"></use><use x="1215" y="46" href="#P0"></use><use x="1330" y="187" href="#P0"></use><use x="1300" y="266" href="#P5"></use><use x="1310" y="479" href="#P4"></use><use x="1338" y="589" href="#P0"></use><use x="1323" y="778" href="#P7"></use><use x="1300" y="900" href="#P2"></use><use x="1368" y="1175" href="#P2"></use><use x="1281" y="1269" href="#P2"></use><use x="1364" y="1440" href="#P7"></use><use x="1294" y="1593" href="#P4"></use><use x="1249" y="1788" href="#P1"></use><use x="1367" y="2041" href="#P4"></use><use x="1352" y="2193" href="#P7"></use><use x="1383" y="2376" href="#P6"></use><use x="1275" y="2476" href="#P4"></use><use x="1318" y="2554" href="#P3"></use><use x="1392" y="2781" href="#P1"></use><use x="1257" y="2941" href="#P6"></use><use x="1421" y="3150" href="#P0"></use><use x="1412" y="3339" href="#P4"></use><use x="1401" y="3425" href="#P7"></use><use x="1328" y="3703" href="#P2"></use><use x="1322" y="3809" href="#P0"></use><use x="1406" y="4049" href="#P0"></use><use x="1364" y="4127" href="#P1"></use><use x="1290" y="4373" href="#P7"></use><use x="1265" y="4610" href="#P1"></use><use x="1284" y="4770" href="#P4"></use><use x="1322" y="4798" href="#P0"></use><use x="1260" y="5013" href="#P2"></use><use x="1335" y="5265" href="#P6"></use><use x="1395" y="-82" href="#P2"></use><use x="1440" y="-80" href="#P7"></use><use x="1523" y="214" href="#P3"></use><use x="1435" y="253" href="#P3"></use><use x="1538" y="548" href="#P7"></use><use x="1494" y="682" href="#P6"></use><use x="1524" y="877" href="#P7"></use><use x="1555" y="1030" href="#P7"></use><use x="1519" y="1197" href="#P3"></use><use x="1415" y="1337" href="#P7"></use><use x="1436" y="1479" href="#P7"></use><use x="1404" y="1685" href="#P3"></use><use x="1432" y="1841" href="#P6"></use><use x="1527" y="1955" href="#P5"></use><use x="1486" y="2199" href="#P1"></use><use x="1463" y="2358" href="#P4"></use><use x="1433" y="2457" href="#P4"></use><use x="1485" y="2708" href="#P7"></use><use x="1572" y="2721" href="#P2"></use><use x="1455" y="3051" href="#P0"></use><use x="1495" y="3100" href="#P6"></use><use x="1430" y="3251" href="#P1"></use><use x="1553" y="3491" href="#P4"></use><use x="1431" y="3581" href="#P2"></use><use x="1465" y="3879" href="#P1"></use><use x="1504" y="4031" href="#P7"></use><use x="1508" y="4269" href="#P7"></use><use x="1572" y="4317" href="#P6"></use><use x="1543" y="4591" href="#P1"></use><use x="1518" y="4640" href="#P5"></use><use x="1425" y="4811" href="#P5"></use><use x="1475" y="4998" href="#P1"></use><use x="1562" y="5162" href="#P4"></use><use x="1645" y="-231" href="#P6"></use><use x="1663" y="-55" href="#P2"></use><use x="1686" y="84" href="#P3"></use><use x="1671" y="288" href="#P3"></use><use x="1708" y="452" href="#P4"></use><use x="1701" y="575" href="#P4"></use><use x="1556" y="893" href="#P3"></use><use x="1690" y="1029" href="#P4"></use><use x="1610" y="1114" href="#P5"></use><use x="1733" y="1274" href="#P1"></use><use x="1620" y="1477" href="#P3"></use><use x="1730" y="1682" href="#P3"></use><use x="1735" y="1880" href="#P4"></use><use x="1697" y="1958" href="#P1"></use><use x="1636" y="2146" href="#P2"></use><use x="1660" y="2291" href="#P7"></use><use x="1595" y="2520" href="#P6"></use><use x="1756" y="2690" href="#P4"></use><use x="1609" y="2738" href="#P3"></use><use x="1746" y="3022" href="#P2"></use><use x="1603" y="3089" href="#P2"></use><use x="1640" y="3344" href="#P3"></use><use x="1692" y="3438" href="#P0"></use><use x="1745" y="3604" href="#P4"></use><use x="1675" y="3790" href="#P2"></use><use x="1747" y="3954" href="#P6"></use><use x="1734" y="4232" href="#P0"></use><use x="1762" y="4346" href="#P3"></use><use x="1625" y="4503" href="#P7"></use><use x="1690" y="4686" href="#P5"></use><use x="1736" y="4834" href="#P3"></use><use x="1598" y="5118" href="#P6"></use><use x="1686" y="5234" href="#P2"></use><use x="1794" y="-94" href="#P1"></use><use x="1822" y="66" href="#P0"></use><use x="1798" y="178" href="#P7"></use><use x="1753" y="260" href="#P5"></use><use x="1856" y="446" href="#P5"></use><use x="1852" y="713" href="#P3"></use><use x="1874" y="758" href="#P2"></use><use x="1793" y="935" href="#P4"></use><use x="1774" y="1100" href="#P4"></use><use x="1756" y="1272" href="#P0"></use><use x="1838" y="1481" href="#P0"></use><use x="1804" y="1611" href="#P5"></use><use x="1835" y="1759" href="#P2"></use><use x="1793" y="2026" href="#P6"></use><use x="1895" y="2151" href="#P5"></use><use x="1858" y="2281" href="#P0"></use><use x="1794" y="2520" href="#P6"></use><use x="1817" y="2594" href="#P5"></use><use x="1898" y="2891" href="#P2"></use><use x="1810" y="2951" href="#P6"></use><use x="1842" y="3057" href="#P6"></use><use x="1943" y="3234" href="#P0"></use><use x="1778" y="3423" href="#P4"></use><use x="1891" y="3640" href="#P4"></use><use x="1944" y="3844" href="#P3"></use><use x="1781" y="4084" href="#P1"></use><use x="1875" y="4110" href="#P3"></use><use x="1801" y="4276" href="#P6"></use><use x="1929" y="4548" href="#P6"></use><use x="1857" y="4679" href="#P3"></use><use x="1798" y="4924" href="#P7"></use><use x="1865" y="5028" href="#P3"></use><use x="1845" y="5177" href="#P1"></use><use x="1912" y="-93" href="#P2"></use><use x="1990" y="-51" href="#P7"></use><use x="1936" y="203" href="#P3"></use><use x="1994" y="330" href="#P7"></use><use x="2040" y="456" href="#P4"></use><use x="2017" y="708" href="#P0"></use><use x="1954" y="759" href="#P3"></use><use x="2083" y="1059" href="#P6"></use><use x="2067" y="1186" href="#P7"></use><use x="2034" y="1352" href="#P1"></use><use x="2067" y="1576" href="#P5"></use><use x="2055" y="1662" href="#P2"></use><use x="2018" y="1826" href="#P5"></use><use x="2063" y="1961" href="#P7"></use><use x="2067" y="2119" href="#P2"></use><use x="2030" y="2389" href="#P6"></use><use x="1958" y="2429" href="#P3"></use><use x="2105" y="2589" href="#P4"></use><use x="2008" y="2802" href="#P2"></use><use x="1947" y="3026" href="#P7"></use><use x="2081" y="3081" href="#P0"></use><use x="2073" y="3323" href="#P1"></use><use x="2080" y="3491" href="#P4"></use><use x="2115" y="3599" href="#P3"></use><use x="1951" y="3777" href="#P7"></use><use x="2102" y="4027" href="#P0"></use><use x="1974" y="4264" href="#P4"></use><use x="2034" y="4345" href="#P5"></use><use x="1976" y="4559" href="#P2"></use><use x="2064" y="4735" href="#P1"></use><use x="2053" y="4940" href="#P0"></use><use x="2031" y="5076" href="#P5"></use><use x="2085" y="5119" href="#P6"></use><use x="2099" y="-194" href="#P0"></use><use x="2173" y="49" href="#P4"></use><use x="2126" y="163" href="#P3"></use><use x="2106" y="363" href="#P2"></use><use x="2071" y="512" href="#P1"></use><use x="2229" y="583" href="#P2"></use><use x="2137" y="889" href="#P3"></use><use x="2126" y="1069" href="#P4"></use><use x="2203" y="1163" href="#P2"></use><use x="2119" y="1290" href="#P7"></use><use x="2103" y="1523" href="#P5"></use><use x="2130" y="1708" href="#P2"></use><use x="2212" y="1762" href="#P4"></use><use x="2097" y="2036" href="#P3"></use><use x="2227" y="2161" href="#P2"></use><use x="2185" y="2274" href="#P2"></use><use x="2197" y="2455" href="#P5"></use><use x="2209" y="2678" href="#P4"></use><use x="2219" y="2809" href="#P3"></use><use x="2267" y="2906" href="#P6"></use><use x="2196" y="3120" href="#P1"></use><use x="2149" y="3260" href="#P4"></use><use x="2205" y="3471" href="#P5"></use><use x="2207" y="3619" href="#P1"></use><use x="2275" y="3913" href="#P2"></use><use x="2247" y="4093" href="#P4"></use><use x="2229" y="4130" href="#P1"></use><use x="2220" y="4388" href="#P2"></use><use x="2215" y="4607" href="#P5"></use><use x="2175" y="4754" href="#P7"></use><use x="2218" y="4885" href="#P1"></use><use x="2161" y="5109" href="#P0"></use><use x="2187" y="5276" href="#P1"></use><use x="2316" y="-167" href="#P0"></use><use x="2245" y="40" href="#P6"></use><use x="2277" y="227" href="#P5"></use><use x="2292" y="298" href="#P1"></use><use x="2340" y="501" href="#P2"></use><use x="2328" y="706" href="#P1"></use><use x="2262" y="778" href="#P0"></use><use x="2351" y="1038" href="#P6"></use><use x="2274" y="1208" href="#P2"></use><use x="2261" y="1383" href="#P0"></use><use x="2223" y="1425" href="#P6"></use><use x="2309" y="1637" href="#P2"></use><use x="2355" y="1777" href="#P1"></use><use x="2341" y="1921" href="#P1"></use><use x="2418" y="2202" href="#P5"></use><use x="2343" y="2307" href="#P4"></use><use x="2279" y="2443" href="#P6"></use><use x="2367" y="2694" href="#P2"></use><use x="2433" y="2889" href="#P5"></use><use x="2444" y="3059" href="#P4"></use><use x="2445" y="3123" href="#P7"></use><use x="2284" y="3241" href="#P0"></use><use x="2350" y="3419" href="#P3"></use><use x="2335" y="3639" href="#P3"></use><use x="2376" y="3820" href="#P3"></use><use x="2425" y="3925" href="#P1"></use><use x="2321" y="4146" href="#P6"></use><use x="2433" y="4399" href="#P3"></use><use x="2327" y="4584" href="#P2"></use><use x="2421" y="4763" href="#P7"></use><use x="2378" y="4812" href="#P2"></use><use x="2359" y="5044" href="#P7"></use><use x="2303" y="5232" href="#P3"></use><use x="2473" y="-264" href="#P6"></use><use x="2536" y="-94" href="#P3"></use><use x="2427" y="111" href="#P5"></use><use x="2516" y="346" href="#P4"></use><use x="2533" y="506" href="#P2"></use><use x="2418" y="589" href="#P2"></use><use x="2441" y="766" href="#P5"></use><use x="2379" y="945" href="#P3"></use><use x="2547" y="1220" href="#P3"></use><use x="2547" y="1413" href="#P7"></use><use x="2510" y="1448" href="#P7"></use><use x="2534" y="1621" href="#P6"></use><use x="2437" y="1829" href="#P1"></use><use x="2538" y="1901" href="#P0"></use><use x="2544" y="2212" href="#P0"></use><use x="2481" y="2316" href="#P0"></use><use x="2453" y="2400" href="#P2"></use><use x="2447" y="2596" href="#P4"></use><use x="2479" y="2879" href="#P6"></use><use x="2564" y="3029" href="#P7"></use><use x="2464" y="3209" href="#P4"></use><use x="2489" y="3305" href="#P0"></use><use x="2566" y="3417" href="#P4"></use><use x="2533" y="3608" href="#P1"></use><use x="2617" y="3759" href="#P3"></use><use x="2458" y="4045" href="#P5"></use><use x="2563" y="4222" href="#P0"></use><use x="2460" y="4393" href="#P7"></use><use x="2460" y="4451" href="#P5"></use><use x="2563" y="4745" href="#P1"></use><use x="2558" y="4785" href="#P3"></use><use x="2476" y="5037" href="#P3"></use><use x="2571" y="5210" href="#P1"></use><use x="2607" y="-128" href="#P0"></use><use x="2646" y="-25" href="#P0"></use><use x="2593" y="182" href="#P2"></use><use x="2588" y="385" href="#P6"></use><use x="2583" y="538" href="#P0"></use><use x="2712" y="698" href="#P7"></use><use x="2659" y="756" href="#P1"></use><use x="2637" y="986" href="#P6"></use><use x="2569" y="1135" href="#P5"></use><use x="2662" y="1275" href="#P1"></use><use x="2619" y="1482" href="#P5"></use><use x="2691" y="1757" href="#P5"></use><use x="2661" y="1847" href="#P5"></use><use x="2699" y="1974" href="#P3"></use><use x="2614" y="2161" href="#P0"></use><use x="2724" y="2403" href="#P5"></use><use x="2663" y="2500" href="#P3"></use><use x="2627" y="2609" href="#P1"></use><use x="2637" y="2858" href="#P4"></use><use x="2778" y="2901" href="#P5"></use><use x="2721" y="3240" href="#P2"></use><use x="2625" y="3313" href="#P3"></use><use x="2629" y="3416" href="#P7"></use><use x="2737" y="3588" href="#P2"></use><use x="2745" y="3800" href="#P6"></use><use x="2650" y="4021" href="#P2"></use><use x="2649" y="4224" href="#P1"></use><use x="2601" y="4381" href="#P3"></use><use x="2600" y="4542" href="#P7"></use><use x="2635" y="4684" href="#P1"></use><use x="2761" y="4893" href="#P5"></use><use x="2773" y="5062" href="#P3"></use><use x="2653" y="5214" href="#P7"></use><use x="2841" y="-137" href="#P0"></use><use x="2840" y="27" href="#P0"></use><use x="2827" y="149" href="#P6"></use><use x="2883" y="384" href="#P1"></use><use x="2740" y="392" href="#P4"></use><use x="2863" y="576" href="#P2"></use><use x="2760" y="858" href="#P6"></use><use x="2727" y="1058" href="#P7"></use><use x="2881" y="1157" href="#P1"></use><use x="2748" y="1373" href="#P1"></use><use x="2761" y="1486" href="#P4"></use><use x="2741" y="1751" href="#P2"></use><use x="2902" y="1904" href="#P1"></use><use x="2793" y="1950" href="#P2"></use><use x="2819" y="2182" href="#P4"></use><use x="2830" y="2255" href="#P3"></use><use x="2927" y="2478" href="#P5"></use><use x="2882" y="2697" href="#P5"></use><use x="2784" y="2839" href="#P0"></use><use x="2906" y="3051" href="#P4"></use><use x="2915" y="3093" href="#P2"></use><use x="2790" y="3337" href="#P3"></use><use x="2898" y="3457" href="#P4"></use><use x="2882" y="3596" href="#P4"></use><use x="2823" y="3803" href="#P7"></use><use x="2853" y="4019" href="#P6"></use><use x="2900" y="4212" href="#P4"></use><use x="2862" y="4258" href="#P5"></use><use x="2894" y="4560" href="#P1"></use><use x="2898" y="4635" href="#P2"></use><use x="2887" y="4772" href="#P6"></use><use x="2871" y="4972" href="#P1"></use><use x="2864" y="5132" href="#P2"></use><use x="2899" y="-245" href="#P2"></use><use x="2959" y="-8" href="#P5"></use><use x="3039" y="148" href="#P7"></use><use x="3030" y="250" href="#P2"></use><use x="2939" y="492" href="#P0"></use><use x="2985" y="633" href="#P2"></use><use x="3017" y="786" href="#P2"></use><use x="2904" y="959" href="#P4"></use><use x="2964" y="1082" href="#P7"></use><use x="3008" y="1387" href="#P5"></use><use x="2958" y="1577" href="#P1"></use><use x="3029" y="1733" href="#P4"></use><use x="3041" y="1943" href="#P0"></use><use x="2991" y="2011" href="#P0"></use><use x="3016" y="2107" href="#P5"></use><use x="3029" y="2286" href="#P5"></use><use x="3026" y="2407" href="#P5"></use><use x="3072" y="2716" href="#P4"></use><use x="2957" y="2741" href="#P2"></use><use x="2989" y="2982" href="#P5"></use><use x="2995" y="3150" href="#P2"></use><use x="3066" y="3341" href="#P7"></use><use x="3048" y="3439" href="#P2"></use><use x="2975" y="3628" href="#P7"></use><use x="3059" y="3914" href="#P1"></use><use x="2950" y="3956" href="#P6"></use><use x="3062" y="4228" href="#P7"></use><use x="3092" y="4308" href="#P1"></use><use x="2971" y="4572" href="#P4"></use><use x="3012" y="4735" href="#P3"></use><use x="3029" y="4811" href="#P1"></use><use x="3010" y="4961" href="#P3"></use><use x="3014" y="5192" href="#P3"></use><use x="3090" y="-126" href="#P7"></use><use x="3163" y="-51" href="#P0"></use><use x="3083" y="200" href="#P4"></use><use x="3228" y="227" href="#P4"></use><use x="3198" y="502" href="#P5"></use><use x="3167" y="566" href="#P4"></use><use x="3152" y="864" href="#P0"></use><use x="3201" y="1040" href="#P1"></use><use x="3165" y="1107" href="#P2"></use><use x="3195" y="1389" href="#P1"></use><use x="3081" y="1465" href="#P5"></use><use x="3227" y="1716" href="#P2"></use><use x="3194" y="1789" href="#P2"></use><use x="3151" y="2019" href="#P3"></use><use x="3207" y="2157" href="#P7"></use><use x="3212" y="2345" href="#P1"></use><use x="3210" y="2553" href="#P3"></use><use x="3191" y="2697" href="#P6"></use><use x="3110" y="2895" href="#P6"></use><use x="3126" y="3077" href="#P5"></use><use x="3164" y="3218" href="#P2"></use><use x="3182" y="3307" href="#P3"></use><use x="3111" y="3469" href="#P6"></use><use x="3263" y="3700" href="#P2"></use><use x="3242" y="3922" href="#P7"></use><use x="3229" y="3969" href="#P0"></use><use x="3238" y="4127" href="#P6"></use><use x="3109" y="4328" href="#P2"></use><use x="3178" y="4553" href="#P4"></use><use x="3104" y="4651" href="#P2"></use><use x="3271" y="4856" href="#P2"></use><use x="3192" y="5035" href="#P7"></use><use x="3223" y="5088" href="#P6"></use><use x="3297" y="-155" href="#P4"></use><use x="3277" y="-105" href="#P1"></use><use x="3260" y="96" href="#P1"></use><use x="3254" y="369" href="#P7"></use><use x="3398" y="491" href="#P2"></use><use x="3304" y="662" href="#P0"></use><use x="3378" y="823" href="#P0"></use><use x="3388" y="998" href="#P0"></use><use x="3318" y="1181" href="#P4"></use><use x="3371" y="1261" href="#P0"></use><use x="3365" y="1541" href="#P6"></use><use x="3364" y="1621" href="#P0"></use><use x="3305" y="1800" href="#P1"></use><use x="3272" y="2015" href="#P0"></use><use x="3292" y="2249" href="#P0"></use><use x="3406" y="2309" href="#P1"></use><use x="3384" y="2517" href="#P6"></use><use x="3297" y="2608" href="#P5"></use><use x="3411" y="2871" href="#P7"></use><use x="3341" y="3048" href="#P7"></use><use x="3415" y="3118" href="#P7"></use><use x="3331" y="3298" href="#P6"></use><use x="3344" y="3577" href="#P5"></use><use x="3294" y="3692" href="#P0"></use><use x="3343" y="3836" href="#P0"></use><use x="3307" y="3939" href="#P4"></use><use x="3397" y="4207" href="#P1"></use><use x="3289" y="4275" href="#P1"></use><use x="3432" y="4470" href="#P6"></use><use x="3438" y="4744" href="#P1"></use><use x="3359" y="4790" href="#P6"></use><use x="3445" y="5042" href="#P6"></use><use x="3292" y="5154" href="#P2"></use><use x="3443" y="-135" href="#P3"></use><use x="3456" y="-77" href="#P0"></use><use x="3440" y="114" href="#P3"></use><use x="3499" y="309" href="#P6"></use><use x="3461" y="386" href="#P5"></use><use x="3412" y="713" href="#P7"></use><use x="3456" y="891" href="#P5"></use><use x="3495" y="999" href="#P6"></use><use x="3441" y="1102" href="#P3"></use><use x="3505" y="1264" href="#P6"></use><use x="3491" y="1588" href="#P7"></use><use x="3400" y="1687" href="#P7"></use><use x="3495" y="1888" href="#P1"></use><use x="3550" y="2080" href="#P3"></use><use x="3480" y="2270" href="#P5"></use><use x="3576" y="2342" href="#P6"></use><use x="3475" y="2502" href="#P3"></use><use x="3541" y="2712" href="#P5"></use><use x="3521" y="2867" href="#P5"></use><use x="3548" y="3071" href="#P4"></use><use x="3579" y="3130" href="#P1"></use><use x="3465" y="3257" href="#P2"></use><use x="3535" y="3558" href="#P6"></use><use x="3495" y="3738" href="#P2"></use><use x="3591" y="3763" href="#P1"></use><use x="3515" y="3972" href="#P2"></use><use x="3482" y="4186" href="#P0"></use><use x="3548" y="4301" href="#P3"></use><use x="3547" y="4485" href="#P4"></use><use x="3452" y="4707" href="#P1"></use><use x="3563" y="4848" href="#P6"></use><use x="3450" y="5051" href="#P7"></use><use x="3541" y="5111" href="#P1"></use><use x="3631" y="-216" href="#P0"></use><use x="3678" y="-23" href="#P1"></use><use x="3719" y="184" href="#P0"></use><use x="3650" y="359" href="#P5"></use><use x="3736" y="516" href="#P6"></use><use x="3747" y="626" href="#P7"></use><use x="3598" y="817" href="#P1"></use><use x="3620" y="1062" href="#P3"></use><use x="3628" y="1211" href="#P0"></use><use x="3734" y="1332" href="#P7"></use><use x="3583" y="1529" href="#P0"></use><use x="3743" y="1664" href="#P4"></use><use x="3605" y="1929" href="#P2"></use><use x="3718" y="2016" href="#P1"></use><use x="3645" y="2132" href="#P2"></use><use x="3721" y="2388" href="#P0"></use><use x="3657" y="2517" href="#P0"></use><use x="3730" y="2686" href="#P6"></use><use x="3747" y="2868" href="#P4"></use><use x="3728" y="2974" href="#P4"></use><use x="3662" y="3122" href="#P1"></use><use x="3696" y="3401" href="#P4"></use><use x="3752" y="3530" href="#P1"></use><use x="3666" y="3676" href="#P5"></use><use x="3769" y="3869" href="#P6"></use><use x="3684" y="3959" href="#P4"></use><use x="3714" y="4238" href="#P0"></use><use x="3665" y="4327" href="#P1"></use><use x="3647" y="4513" href="#P7"></use><use x="3768" y="4649" href="#P4"></use><use x="3687" y="4836" href="#P7"></use><use x="3658" y="5080" href="#P1"></use><use x="3634" y="5241" href="#P0"></use><use x="3874" y="-244" href="#P2"></use><use x="3802" y="-16" href="#P3"></use><use x="3912" y="135" href="#P4"></use><use x="3848" y="295" href="#P2"></use><use x="3778" y="436" href="#P6"></use><use x="3857" y="583" href="#P1"></use><use x="3922" y="847" href="#P0"></use><use x="3851" y="985" href="#P5"></use><use x="3838" y="1236" href="#P2"></use><use x="3751" y="1378" href="#P3"></use><use x="3769" y="1579" href="#P6"></use><use x="3753" y="1766" href="#P2"></use><use x="3844" y="1932" href="#P0"></use><use x="3897" y="2114" href="#P3"></use><use x="3852" y="2157" href="#P5"></use><use x="3851" y="2414" href="#P4"></use><use x="3782" y="2499" href="#P1"></use><use x="3798" y="2735" href="#P1"></use><use x="3801" y="2861" href="#P7"></use><use x="3841" y="2920" href="#P1"></use><use x="3796" y="3239" href="#P6"></use><use x="3841" y="3340" href="#P2"></use><use x="3925" y="3461" href="#P0"></use><use x="3919" y="3731" href="#P0"></use><use x="3906" y="3816" href="#P5"></use><use x="3791" y="4052" href="#P5"></use><use x="3800" y="4261" href="#P1"></use><use x="3791" y="4388" href="#P6"></use><use x="3912" y="4558" href="#P0"></use><use x="3888" y="4675" href="#P3"></use><use x="3862" y="4785" href="#P0"></use><use x="3852" y="4983" href="#P0"></use><use x="3923" y="5093" href="#P0"></use><use x="3990" y="-162" href="#P5"></use><use x="4074" y="3" href="#P3"></use><use x="4031" y="180" href="#P6"></use><use x="4061" y="367" href="#P6"></use><use x="4016" y="389" href="#P2"></use><use x="4021" y="705" href="#P7"></use><use x="4038" y="878" href="#P0"></use><use x="4002" y="923" href="#P6"></use><use x="4007" y="1093" href="#P3"></use><use x="4071" y="1338" href="#P1"></use><use x="4029" y="1425" href="#P7"></use><use x="3940" y="1608" href="#P3"></use><use x="4024" y="1889" href="#P7"></use><use x="3986" y="2037" href="#P1"></use><use x="4008" y="2144" href="#P1"></use><use x="4038" y="2386" href="#P7"></use><use x="4065" y="2499" href="#P7"></use><use x="4034" y="2632" href="#P2"></use><use x="4082" y="2783" href="#P4"></use><use x="4039" y="3050" href="#P6"></use><use x="4070" y="3174" href="#P5"></use><use x="4052" y="3333" href="#P3"></use><use x="3971" y="3581" href="#P6"></use><use x="4025" y="3635" href="#P4"></use><use x="4047" y="3918" href="#P4"></use><use x="3949" y="3944" href="#P3"></use><use x="4068" y="4260" href="#P6"></use><use x="3956" y="4326" href="#P5"></use><use x="4025" y="4565" href="#P6"></use><use x="3951" y="4751" href="#P3"></use><use x="4079" y="4900" href="#P3"></use><use x="4110" y="5012" href="#P6"></use><use x="3981" y="5092" href="#P7"></use><use x="4155" y="-234" href="#P3"></use><use x="4208" y="-82" href="#P4"></use><use x="4166" y="90" href="#P2"></use><use x="4258" y="359" href="#P7"></use><use x="4123" y="546" href="#P6"></use><use x="4143" y="719" href="#P5"></use><use x="4185" y="822" href="#P3"></use><use x="4164" y="1016" href="#P4"></use><use x="4125" y="1108" href="#P6"></use><use x="4133" y="1265" href="#P6"></use><use x="4134" y="1546" href="#P3"></use><use x="4228" y="1605" href="#P0"></use><use x="4249" y="1924" href="#P0"></use><use x="4157" y="2076" href="#P2"></use><use x="4147" y="2171" href="#P1"></use><use x="4096" y="2312" href="#P2"></use><use x="4236" y="2553" href="#P3"></use><use x="4225" y="2683" href="#P4"></use><use x="4184" y="2855" href="#P3"></use><use x="4142" y="3035" href="#P2"></use><use x="4217" y="3152" href="#P4"></use><use x="4159" y="3410" href="#P3"></use><use x="4132" y="3483" href="#P6"></use><use x="4124" y="3725" href="#P7"></use><use x="4185" y="3809" href="#P1"></use><use x="4122" y="3989" href="#P3"></use><use x="4159" y="4129" href="#P4"></use><use x="4192" y="4383" href="#P4"></use><use x="4225" y="4515" href="#P2"></use><use x="4190" y="4664" href="#P0"></use><use x="4238" y="4768" href="#P2"></use><use x="4209" y="5005" href="#P5"></use><use x="4136" y="5198" href="#P7"></use><use x="4310" y="-262" href="#P3"></use><use x="4281" y="-33" href="#P1"></use><use x="4392" y="74" href="#P1"></use><use x="4394" y="364" href="#P6"></use><use x="4425" y="448" href="#P4"></use><use x="4370" y="712" href="#P1"></use><use x="4276" y="848" href="#P2"></use><use x="4324" y="978" href="#P3"></use><use x="4370" y="1245" href="#P3"></use><use x="4331" y="1306" href="#P0"></use><use x="4415" y="1567" href="#P3"></use><use x="4308" y="1611" href="#P0"></use><use x="4431" y="1909" href="#P0"></use><use x="4331" y="1975" href="#P0"></use><use x="4359" y="2257" href="#P3"></use><use x="4408" y="2414" href="#P0"></use><use x="4298" y="2520" href="#P5"></use><use x="4383" y="2696" href="#P3"></use><use x="4413" y="2869" href="#P2"></use><use x="4304" y="2948" href="#P1"></use><use x="4280" y="3163" href="#P6"></use><use x="4341" y="3305" href="#P1"></use><use x="4362" y="3531" href="#P5"></use><use x="4305" y="3692" href="#P7"></use><use x="4343" y="3883" href="#P2"></use><use x="4430" y="4079" href="#P1"></use><use x="4282" y="4152" href="#P7"></use><use x="4423" y="4306" href="#P1"></use><use x="4394" y="4511" href="#P6"></use><use x="4372" y="4658" href="#P3"></use><use x="4355" y="4815" href="#P6"></use><use x="4365" y="5026" href="#P0"></use><use x="4385" y="5107" href="#P6"></use><use x="4449" y="-225" href="#P6"></use><use x="4521" y="-35" href="#P3"></use><use x="4517" y="127" href="#P4"></use><use x="4592" y="361" href="#P2"></use><use x="4524" y="530" href="#P4"></use><use x="4456" y="606" href="#P1"></use><use x="4613" y="824" href="#P7"></use><use x="4574" y="941" href="#P7"></use><use x="4464" y="1087" href="#P5"></use><use x="4473" y="1256" href="#P3"></use><use x="4477" y="1531" href="#P5"></use><use x="4590" y="1717" href="#P6"></use><use x="4524" y="1839" href="#P3"></use><use x="4582" y="2024" href="#P2"></use><use x="4561" y="2131" href="#P3"></use><use x="4451" y="2432" href="#P7"></use><use x="4527" y="2471" href="#P7"></use><use x="4538" y="2703" href="#P7"></use><use x="4478" y="2767" href="#P6"></use><use x="4451" y="2943" href="#P7"></use><use x="4495" y="3138" href="#P3"></use><use x="4535" y="3443" href="#P6"></use><use x="4578" y="3506" href="#P5"></use><use x="4510" y="3725" href="#P2"></use><use x="4542" y="3930" href="#P3"></use><use x="4493" y="3951" href="#P3"></use><use x="4463" y="4220" href="#P2"></use><use x="4455" y="4336" href="#P5"></use><use x="4484" y="4469" href="#P6"></use><use x="4510" y="4691" href="#P1"></use><use x="4572" y="4851" href="#P0"></use><use x="4464" y="4962" href="#P1"></use><use x="4481" y="5199" href="#P0"></use><use x="4761" y="-202" href="#P7"></use><use x="4711" y="54" href="#P3"></use><use x="4665" y="104" href="#P3"></use><use x="4649" y="277" href="#P6"></use><use x="4667" y="510" href="#P2"></use><use x="4742" y="618" href="#P7"></use><use x="4732" y="823" href="#P7"></use><use x="4736" y="909" href="#P3"></use><use x="4620" y="1162" href="#P2"></use><use x="4638" y="1390" href="#P1"></use><use x="4620" y="1426" href="#P2"></use><use x="4632" y="1612" href="#P5"></use><use x="4739" y="1778" href="#P0"></use><use x="4740" y="1976" href="#P3"></use><use x="4725" y="2280" href="#P0"></use><use x="4634" y="2318" href="#P2"></use><use x="4752" y="2447" href="#P5"></use><use x="4641" y="2674" href="#P7"></use><use x="4635" y="2840" href="#P7"></use><use x="4752" y="2983" href="#P7"></use><use x="4710" y="3201" href="#P5"></use><use x="4610" y="3371" href="#P2"></use><use x="4634" y="3457" href="#P4"></use><use x="4666" y="3691" href="#P1"></use><use x="4686" y="3905" href="#P6"></use><use x="4597" y="3967" href="#P4"></use><use x="4711" y="4147" href="#P1"></use><use x="4640" y="4303" href="#P0"></use><use x="4604" y="4529" href="#P2"></use><use x="4718" y="4713" href="#P2"></use><use x="4644" y="4811" href="#P7"></use><use x="4704" y="5033" href="#P4"></use><use x="4742" y="5215" href="#P6"></use><use x="4880" y="-135" href="#P0"></use><use x="4923" y="2" href="#P4"></use><use x="4826" y="174" href="#P6"></use><use x="4812" y="260" href="#P0"></use><use x="4881" y="428" href="#P7"></use><use x="4913" y="672" href="#P5"></use><use x="4911" y="836" href="#P5"></use><use x="4891" y="1017" href="#P5"></use><use x="4844" y="1246" href="#P2"></use><use x="4823" y="1312" href="#P3"></use><use x="4805" y="1518" href="#P7"></use><use x="4933" y="1664" href="#P0"></use><use x="4912" y="1815" href="#P0"></use><use x="4878" y="2045" href="#P5"></use><use x="4917" y="2206" href="#P7"></use><use x="4832" y="2366" href="#P5"></use><use x="4867" y="2539" href="#P3"></use><use x="4837" y="2627" href="#P6"></use><use x="4905" y="2793" href="#P1"></use><use x="4882" y="2973" href="#P6"></use><use x="4828" y="3217" href="#P6"></use><use x="4809" y="3385" href="#P7"></use><use x="4836" y="3614" href="#P6"></use><use x="4846" y="3646" href="#P5"></use><use x="4887" y="3788" href="#P3"></use><use x="4888" y="4036" href="#P0"></use><use x="4815" y="4182" href="#P7"></use><use x="4868" y="4320" href="#P2"></use><use x="4902" y="4524" href="#P3"></use><use x="4848" y="4682" href="#P3"></use><use x="4917" y="4813" href="#P4"></use><use x="4785" y="4996" href="#P5"></use><use x="4915" y="5159" href="#P5"></use><use x="5069" y="-220" href="#P6"></use><use x="5069" y="-59" href="#P0"></use><use x="5100" y="152" href="#P6"></use><use x="5102" y="346" href="#P1"></use><use x="4967" y="426" href="#P1"></use><use x="5031" y="597" href="#P5"></use><use x="5113" y="804" href="#P6"></use><use x="4989" y="989" href="#P2"></use><use x="5097" y="1225" href="#P4"></use><use x="4956" y="1338" href="#P6"></use><use x="5043" y="1520" href="#P3"></use><use x="5083" y="1759" href="#P4"></use><use x="5076" y="1892" href="#P4"></use><use x="5090" y="1936" href="#P3"></use><use x="4988" y="2251" href="#P4"></use><use x="4963" y="2282" href="#P1"></use><use x="5092" y="2520" href="#P6"></use><use x="4976" y="2632" href="#P2"></use><use x="4963" y="2870" href="#P4"></use><use x="4948" y="3084" href="#P3"></use><use x="5048" y="3121" href="#P7"></use><use x="4932" y="3339" href="#P7"></use><use x="4967" y="3546" href="#P1"></use><use x="4997" y="3690" href="#P1"></use><use x="4984" y="3803" href="#P0"></use><use x="4988" y="4033" href="#P2"></use><use x="4952" y="4199" href="#P2"></use><use x="5012" y="4406" href="#P1"></use><use x="5078" y="4519" href="#P0"></use><use x="5032" y="4659" href="#P1"></use><use x="5034" y="4838" href="#P7"></use><use x="5074" y="5020" href="#P7"></use><use x="5003" y="5120" href="#P6"></use><use x="5162" y="-139" href="#P3"></use><use x="5234" y="41" href="#P5"></use><use x="5147" y="73" href="#P7"></use><use x="5146" y="391" href="#P7"></use><use x="5221" y="524" href="#P7"></use><use x="5159" y="736" href="#P0"></use><use x="5227" y="764" href="#P4"></use><use x="5199" y="931" href="#P6"></use><use x="5267" y="1172" href="#P5"></use><use x="5230" y="1250" href="#P5"></use><use x="5270" y="1499" href="#P4"></use><use x="5200" y="1654" href="#P7"></use><use x="5151" y="1881" href="#P4"></use><use x="5149" y="1932" href="#P4"></use><use x="5276" y="2220" href="#P5"></use><use x="5177" y="2430" href="#P3"></use><use x="5125" y="2459" href="#P5"></use><use x="5218" y="2719" href="#P4"></use><use x="5104" y="2807" href="#P2"></use><use x="5234" y="2960" href="#P0"></use><use x="5220" y="3199" href="#P7"></use><use x="5233" y="3368" href="#P5"></use><use x="5114" y="3617" href="#P3"></use><use x="5185" y="3687" href="#P0"></use><use x="5114" y="3898" href="#P4"></use><use x="5192" y="4010" href="#P3"></use><use x="5174" y="4232" href="#P4"></use><use x="5132" y="4305" href="#P2"></use><use x="5185" y="4440" href="#P3"></use><use x="5176" y="4679" href="#P0"></use><use x="5086" y="4796" href="#P3"></use><use x="5129" y="4966" href="#P4"></use><use x="5183" y="5136" href="#P1"></use></g></svg>