
<svg xlink="http://www.w3.org/1999/xlink" viewBox="0 0 5000 5000" xmlns="http://www.w3.org/2000/svg" style="transform: scale(1);"><defs><filter id="goo"><feGaussianBlur in="SourceGraphic" stdDeviation="2.5" result="blur"></feGaussianBlur><feColorMatrix in="blur" type="matrix" values="1 0 0 0 0 0 1 0 0 0 0 0 1 0 0 0 0 0 19 -9" result="good"></feColorMatrix><feComposite in="SourceGraphic" in2="goo" operator="atop"></feComposite></filter><path d="M291,124C302,201 320,232 376,291C299,302 268,320 209,376C198,299 180,268 124,209C201,198 232,180 291,124z" id="P0"></path><path d="M250,431C203,336 167,302 69,250C164,203 198,167 250,69Q436,52 431,250L250,431z" id="P1"></path><path d="M373,258L242,373C214,306 192,282 127,242Q124,116 258,127Q384,124 373,258z" id="P2"></path><path d="M110,134Q216,-21 366,110Q521,216 390,366L134,390L110,134z" id="P3"></path><path d="M163,195C196,153 250,139 305,163C347,196 361,250 337,305L195,337C201,277 194,250 163,195z" id="P4"></path><path d="M152,321L179,152Q273,70 348,179L321,348Q227,430 152,321z" id="P5"></path><path d="M83,158C139,76 237,44 342,83L417,342L158,417C163,305 147,256 83,158z" id="P6"></path><path d="M135,323C177,255 184,219 177,135Q288,50 365,177C397,241 383,313 323,365Q212,450 135,323z" id="P7"></path></defs><rect id="RECT" width="5000" height="5000" fill="#0073CF"></rect><g id="group" fill="#FFFFFF" filter="url(#goo)"><use x="-104" y="-182" href="#P0"></use><use x="-186" y="-40" href="#P7"></use><use x="-197" y="122" href="#P7"></use><use x="-92" y="252" href="#P2"></use><use x="-183" y="475" href="#P1"></use><use x="-182" y="729" href="#P3"></use><use x="-202" y="861" href="#P3"></use><use x="-160" y="934" href="#P7"></use><use x="-140" y="1154" href="#P3"></use><use x="-89" y="1405" href="#P0"></use><use x="-228" y="1491" href="#P3"></use><use x="-148" y="1677" href="#P7"></use><use x="-210" y="1889" href="#P7"></use><use x="-180" y="2054" href="#P4"></use><use x="-137" y="2234" href="#P1"></use><use x="-141" y="2349" href="#P6"></use><use x="-192" y="2569" href="#P3"></use><use x="-150" y="2708" href="#P2"></use><use x="-113" y="2754" href="#P1"></use><use x="-166" y="3003" href="#P2"></use><use x="-167" y="3196" href="#P5"></use><use x="-156" y="3375" href="#P6"></use><use x="-85" y="3528" href="#P2"></use><use x="-173" y="3697" href="#P4"></use><use x="-122" y="3798" href="#P4"></use><use x="-157" y="4072" href="#P7"></use><use x="-186" y="4211" href="#P7"></use><use x="-150" y="4353" href="#P0"></use><use x="-228" y="4486" href="#P5"></use><use x="-154" y="4614" href="#P2"></use><use x="-127" y="4770" href="#P2"></use><use x="-245" y="4983" href="#P4"></use><use x="-91" y="5211" href="#P2"></use><use x="-59" y="-196" href="#P1"></use><use x="74" y="81" href="#P4"></use><use x="65" y="232" href="#P3"></use><use x="4" y="310" href="#P1"></use><use x="-69" y="462" href="#P0"></use><use x="-37" y="661" href="#P0"></use><use x="63" y="906" href="#P2"></use><use x="-58" y="1046" href="#P7"></use><use x="-65" y="1135" href="#P3"></use><use x="-80" y="1256" href="#P3"></use><use x="5" y="1492" href="#P5"></use><use x="53" y="1586" href="#P0"></use><use x="-25" y="1846" href="#P4"></use><use x="-64" y="1956" href="#P4"></use><use x="45" y="2239" href="#P5"></use><use x="55" y="2334" href="#P2"></use><use x="58" y="2456" href="#P2"></use><use x="-25" y="2624" href="#P0"></use><use x="46" y="2792" href="#P5"></use><use x="-18" y="3022" href="#P3"></use><use x="4" y="3188" href="#P7"></use><use x="-16" y="3252" href="#P3"></use><use x="-48" y="3512" href="#P0"></use><use x="-66" y="3694" href="#P4"></use><use x="53" y="3757" href="#P4"></use><use x="44" y="4032" href="#P0"></use><use x="16" y="4224" href="#P0"></use><use x="-35" y="4416" href="#P3"></use><use x="40" y="4523" href="#P4"></use><use x="-29" y="4740" href="#P2"></use><use x="38" y="4792" href="#P5"></use><use x="4" y="5077" href="#P5"></use><use x="-53" y="5168" href="#P7"></use><use x="199" y="-89" href="#P5"></use><use x="237" y="-27" href="#P2"></use><use x="177" y="238" href="#P2"></use><use x="143" y="283" href="#P7"></use><use x="129" y="574" href="#P4"></use><use x="245" y="742" href="#P5"></use><use x="240" y="825" href="#P6"></use><use x="172" y="991" href="#P6"></use><use x="138" y="1229" href="#P6"></use><use x="191" y="1286" href="#P6"></use><use x="176" y="1474" href="#P7"></use><use x="83" y="1589" href="#P4"></use><use x="242" y="1783" href="#P0"></use><use x="188" y="1966" href="#P0"></use><use x="143" y="2236" href="#P5"></use><use x="166" y="2269" href="#P1"></use><use x="243" y="2533" href="#P5"></use><use x="123" y="2607" href="#P7"></use><use x="190" y="2774" href="#P4"></use><use x="193" y="2972" href="#P7"></use><use x="171" y="3161" href="#P3"></use><use x="221" y="3377" href="#P1"></use><use x="182" y="3430" href="#P7"></use><use x="183" y="3613" href="#P2"></use><use x="221" y="3819" href="#P1"></use><use x="238" y="4079" href="#P7"></use><use x="186" y="4227" href="#P0"></use><use x="244" y="4324" href="#P5"></use><use x="170" y="4539" href="#P6"></use><use x="175" y="4627" href="#P0"></use><use x="129" y="4914" href="#P0"></use><use x="181" y="5009" href="#P2"></use><use x="91" y="5239" href="#P3"></use><use x="258" y="-193" href="#P0"></use><use x="348" y="-29" href="#P0"></use><use x="275" y="240" href="#P0"></use><use x="320" y="286" href="#P1"></use><use x="323" y="524" href="#P0"></use><use x="396" y="666" href="#P6"></use><use x="342" y="872" href="#P7"></use><use x="378" y="970" href="#P2"></use><use x="263" y="1202" href="#P2"></use><use x="256" y="1417" href="#P2"></use><use x="268" y="1462" href="#P4"></use><use x="387" y="1744" href="#P0"></use><use x="358" y="1898" href="#P4"></use><use x="388" y="2043" href="#P5"></use><use x="342" y="2147" href="#P5"></use><use x="274" y="2305" href="#P7"></use><use x="309" y="2444" href="#P4"></use><use x="272" y="2726" href="#P0"></use><use x="339" y="2842" href="#P7"></use><use x="295" y="2975" href="#P0"></use><use x="403" y="3213" href="#P2"></use><use x="379" y="3415" href="#P1"></use><use x="385" y="3435" href="#P4"></use><use x="377" y="3620" href="#P1"></use><use x="408" y="3877" href="#P6"></use><use x="362" y="3932" href="#P7"></use><use x="257" y="4095" href="#P6"></use><use x="326" y="4283" href="#P7"></use><use x="306" y="4492" href="#P7"></use><use x="285" y="4647" href="#P5"></use><use x="380" y="4793" href="#P1"></use><use x="303" y="4978" href="#P0"></use><use x="330" y="5084" href="#P1"></use><use x="581" y="-92" href="#P1"></use><use x="488" y="-5" href="#P5"></use><use x="557" y="213" href="#P1"></use><use x="429" y="278" href="#P6"></use><use x="501" y="496" href="#P7"></use><use x="445" y="625" href="#P0"></use><use x="418" y="840" href="#P1"></use><use x="538" y="943" href="#P0"></use><use x="475" y="1114" href="#P1"></use><use x="527" y="1377" href="#P2"></use><use x="448" y="1448" href="#P3"></use><use x="556" y="1668" href="#P7"></use><use x="556" y="1858" href="#P3"></use><use x="422" y="1933" href="#P1"></use><use x="555" y="2249" href="#P4"></use><use x="572" y="2354" href="#P5"></use><use x="565" y="2461" href="#P4"></use><use x="519" y="2653" href="#P7"></use><use x="569" y="2825" href="#P5"></use><use x="529" y="2950" href="#P2"></use><use x="464" y="3120" href="#P5"></use><use x="533" y="3311" href="#P5"></use><use x="429" y="3523" href="#P1"></use><use x="422" y="3643" href="#P2"></use><use x="504" y="3857" href="#P4"></use><use x="429" y="3946" href="#P5"></use><use x="571" y="4244" href="#P6"></use><use x="578" y="4378" href="#P7"></use><use x="448" y="4515" href="#P2"></use><use x="563" y="4749" href="#P5"></use><use x="573" y="4884" href="#P3"></use><use x="551" y="4956" href="#P3"></use><use x="451" y="5247" href="#P1"></use><use x="622" y="-172" href="#P7"></use><use x="643" y="-15" href="#P6"></use><use x="640" y="110" href="#P6"></use><use x="601" y="275" href="#P7"></use><use x="695" y="581" href="#P5"></use><use x="632" y="728" href="#P3"></use><use x="660" y="761" href="#P1"></use><use x="735" y="1012" href="#P1"></use><use x="620" y="1148" href="#P5"></use><use x="656" y="1416" href="#P2"></use><use x="686" y="1429" href="#P0"></use><use x="738" y="1678" href="#P2"></use><use x="647" y="1852" href="#P6"></use><use x="678" y="2017" href="#P1"></use><use x="594" y="2216" href="#P0"></use><use x="659" y="2250" href="#P5"></use><use x="626" y="2553" href="#P1"></use><use x="600" y="2652" href="#P7"></use><use x="594" y="2914" href="#P1"></use><use x="738" y="3003" href="#P1"></use><use x="626" y="3122" href="#P4"></use><use x="690" y="3298" href="#P3"></use><use x="676" y="3537" href="#P1"></use><use x="674" y="3585" href="#P7"></use><use x="646" y="3877" href="#P7"></use><use x="709" y="4027" href="#P5"></use><use x="666" y="4083" href="#P1"></use><use x="686" y="4276" href="#P5"></use><use x="602" y="4568" href="#P1"></use><use x="617" y="4700" href="#P4"></use><use x="610" y="4898" href="#P0"></use><use x="599" y="5039" href="#P1"></use><use x="746" y="5167" href="#P0"></use><use x="913" y="-106" href="#P7"></use><use x="820" y="4" href="#P4"></use><use x="844" y="136" href="#P6"></use><use x="891" y="305" href="#P4"></use><use x="831" y="489" href="#P3"></use><use x="885" y="652" href="#P4"></use><use x="889" y="896" href="#P1"></use><use x="769" y="984" href="#P0"></use><use x="757" y="1236" href="#P1"></use><use x="870" y="1366" href="#P0"></use><use x="828" y="1562" href="#P2"></use><use x="872" y="1594" href="#P2"></use><use x="888" y="1838" href="#P6"></use><use x="751" y="2004" href="#P7"></use><use x="781" y="2230" href="#P3"></use><use x="801" y="2328" href="#P6"></use><use x="774" y="2506" href="#P5"></use><use x="896" y="2587" href="#P1"></use><use x="838" y="2912" href="#P3"></use><use x="838" y="2968" href="#P6"></use><use x="764" y="3213" href="#P1"></use><use x="751" y="3250" href="#P0"></use><use x="894" y="3422" href="#P7"></use><use x="769" y="3602" href="#P6"></use><use x="865" y="3838" href="#P6"></use><use x="820" y="3941" href="#P0"></use><use x="835" y="4087" href="#P6"></use><use x="813" y="4302" href="#P7"></use><use x="762" y="4462" href="#P7"></use><use x="789" y="4721" href="#P1"></use><use x="774" y="4774" href="#P3"></use><use x="785" y="4997" href="#P3"></use><use x="880" y="5195" href="#P1"></use><use x="1046" y="-97" href="#P7"></use><use x="924" y="-17" href="#P2"></use><use x="957" y="83" href="#P5"></use><use x="1045" y="328" href="#P7"></use><use x="1018" y="466" href="#P0"></use><use x="937" y="689" href="#P7"></use><use x="950" y="859" href="#P2"></use><use x="1013" y="979" href="#P5"></use><use x="1065" y="1231" href="#P3"></use><use x="1025" y="1347" href="#P0"></use><use x="1080" y="1583" href="#P4"></use><use x="1084" y="1591" href="#P2"></use><use x="940" y="1770" href="#P4"></use><use x="966" y="2076" href="#P0"></use><use x="994" y="2096" href="#P0"></use><use x="1027" y="2328" href="#P1"></use><use x="1034" y="2520" href="#P0"></use><use x="961" y="2714" href="#P0"></use><use x="1002" y="2760" href="#P5"></use><use x="993" y="3021" href="#P3"></use><use x="1046" y="3095" href="#P0"></use><use x="960" y="3312" href="#P5"></use><use x="951" y="3580" href="#P4"></use><use x="1009" y="3750" href="#P2"></use><use x="1044" y="3761" href="#P3"></use><use x="1006" y="3982" href="#P1"></use><use x="946" y="4129" href="#P0"></use><use x="1022" y="4254" href="#P4"></use><use x="1037" y="4491" href="#P3"></use><use x="934" y="4592" href="#P5"></use><use x="1020" y="4797" href="#P0"></use><use x="955" y="4941" href="#P5"></use><use x="1010" y="5244" href="#P6"></use><use x="1141" y="-235" href="#P3"></use><use x="1098" y="59" href="#P0"></use><use x="1229" y="205" href="#P7"></use><use x="1206" y="323" href="#P1"></use><use x="1172" y="421" href="#P6"></use><use x="1198" y="587" href="#P0"></use><use x="1185" y="889" href="#P0"></use><use x="1154" y="963" href="#P4"></use><use x="1220" y="1128" href="#P1"></use><use x="1102" y="1366" href="#P1"></use><use x="1178" y="1510" href="#P6"></use><use x="1087" y="1680" href="#P3"></use><use x="1086" y="1816" href="#P2"></use><use x="1086" y="2019" href="#P3"></use><use x="1232" y="2155" href="#P2"></use><use x="1179" y="2386" href="#P2"></use><use x="1196" y="2441" href="#P7"></use><use x="1217" y="2724" href="#P4"></use><use x="1210" y="2770" href="#P4"></use><use x="1107" y="2962" href="#P1"></use><use x="1226" y="3234" href="#P7"></use><use x="1135" y="3326" href="#P0"></use><use x="1229" y="3575" href="#P3"></use><use x="1222" y="3600" href="#P2"></use><use x="1237" y="3877" href="#P6"></use><use x="1203" y="3967" href="#P6"></use><use x="1227" y="4122" href="#P3"></use><use x="1090" y="4392" href="#P4"></use><use x="1091" y="4468" href="#P0"></use><use x="1179" y="4695" href="#P4"></use><use x="1155" y="4800" href="#P2"></use><use x="1083" y="5069" href="#P1"></use><use x="1151" y="5172" href="#P3"></use><use x="1254" y="-106" href="#P2"></use><use x="1253" y="47" href="#P0"></use><use x="1371" y="193" href="#P0"></use><use x="1340" y="274" href="#P5"></use><use x="1351" y="494" href="#P4"></use><use x="1365" y="601" href="#P0"></use><use x="1350" y="794" href="#P7"></use><use x="1327" y="918" href="#P2"></use><use x="1396" y="1199" href="#P2"></use><use x="1307" y="1295" href="#P2"></use><use x="1378" y="1455" href="#P7"></use><use x="1307" y="1609" href="#P4"></use><use x="1262" y="1806" href="#P1"></use><use x="1367" y="2041" href="#P4"></use><use x="1350" y="2224" href="#P7"></use><use x="1379" y="2416" href="#P6"></use><use x="1274" y="2513" href="#P4"></use><use x="1316" y="2589" href="#P3"></use><use x="1387" y="2818" href="#P1"></use><use x="1257" y="2972" href="#P6"></use><use x="1413" y="3179" href="#P0"></use><use x="1404" y="3359" href="#P4"></use><use x="1394" y="3440" href="#P7"></use><use x="1324" y="3706" href="#P2"></use><use x="1318" y="3806" href="#P0"></use><use x="1399" y="4035" href="#P0"></use><use x="1359" y="4109" href="#P1"></use><use x="1288" y="4343" href="#P7"></use><use x="1264" y="4577" href="#P1"></use><use x="1283" y="4731" href="#P4"></use><use x="1319" y="4758" href="#P0"></use><use x="1260" y="4976" href="#P2"></use><use x="1333" y="5235" href="#P6"></use><use x="1438" y="-85" href="#P2"></use><use x="1469" y="-82" href="#P7"></use><use x="1554" y="218" href="#P3"></use><use x="1464" y="258" href="#P3"></use><use x="1569" y="559" href="#P7"></use><use x="1524" y="696" href="#P6"></use><use x="1555" y="895" href="#P7"></use><use x="1571" y="1040" href="#P7"></use><use x="1534" y="1209" href="#P3"></use><use x="1429" y="1351" href="#P7"></use><use x="1451" y="1494" href="#P7"></use><use x="1418" y="1702" href="#P3"></use><use x="1432" y="1841" href="#P6"></use><use x="1522" y="1990" href="#P5"></use><use x="1481" y="2229" href="#P1"></use><use x="1457" y="2399" href="#P4"></use><use x="1428" y="2495" href="#P4"></use><use x="1476" y="2748" href="#P7"></use><use x="1560" y="2761" href="#P2"></use><use x="1447" y="3078" href="#P0"></use><use x="1486" y="3125" href="#P6"></use><use x="1421" y="3275" href="#P1"></use><use x="1539" y="3503" href="#P4"></use><use x="1422" y="3589" href="#P2"></use><use x="1455" y="3873" href="#P1"></use><use x="1492" y="4018" href="#P7"></use><use x="1496" y="4244" href="#P7"></use><use x="1560" y="4295" href="#P6"></use><use x="1532" y="4559" href="#P1"></use><use x="1508" y="4606" href="#P5"></use><use x="1418" y="4770" href="#P5"></use><use x="1468" y="4962" href="#P1"></use><use x="1553" y="5121" href="#P4"></use><use x="1679" y="-236" href="#P6"></use><use x="1697" y="-56" href="#P2"></use><use x="1720" y="86" href="#P3"></use><use x="1705" y="294" href="#P3"></use><use x="1743" y="461" href="#P4"></use><use x="1736" y="587" href="#P4"></use><use x="1588" y="911" href="#P3"></use><use x="1707" y="1039" href="#P4"></use><use x="1626" y="1125" href="#P5"></use><use x="1750" y="1287" href="#P1"></use><use x="1636" y="1492" href="#P3"></use><use x="1730" y="1682" href="#P3"></use><use x="1730" y="1899" href="#P4"></use><use x="1688" y="1993" href="#P1"></use><use x="1628" y="2177" href="#P2"></use><use x="1652" y="2320" href="#P7"></use><use x="1585" y="2556" href="#P6"></use><use x="1741" y="2721" href="#P4"></use><use x="1595" y="2777" href="#P3"></use><use x="1727" y="3050" href="#P2"></use><use x="1589" y="3114" href="#P2"></use><use x="1621" y="3363" href="#P3"></use><use x="1671" y="3453" href="#P0"></use><use x="1721" y="3611" href="#P4"></use><use x="1655" y="3788" href="#P2"></use><use x="1723" y="3944" href="#P6"></use><use x="1715" y="4213" href="#P0"></use><use x="1742" y="4323" href="#P3"></use><use x="1611" y="4474" href="#P7"></use><use x="1673" y="4650" href="#P5"></use><use x="1722" y="4802" href="#P3"></use><use x="1588" y="5078" href="#P6"></use><use x="1677" y="5205" href="#P2"></use><use x="1831" y="-96" href="#P1"></use><use x="1859" y="67" href="#P0"></use><use x="1835" y="182" href="#P7"></use><use x="1789" y="265" href="#P5"></use><use x="1875" y="450" href="#P5"></use><use x="1871" y="720" href="#P3"></use><use x="1893" y="766" href="#P2"></use><use x="1811" y="944" href="#P4"></use><use x="1792" y="1111" href="#P4"></use><use x="1774" y="1285" href="#P0"></use><use x="1838" y="1481" href="#P0"></use><use x="1804" y="1611" href="#P5"></use><use x="1829" y="1779" href="#P2"></use><use x="1782" y="2060" href="#P6"></use><use x="1882" y="2182" href="#P5"></use><use x="1846" y="2310" href="#P0"></use><use x="1778" y="2556" href="#P6"></use><use x="1800" y="2628" href="#P5"></use><use x="1879" y="2916" href="#P2"></use><use x="1788" y="2982" href="#P6"></use><use x="1819" y="3084" href="#P6"></use><use x="1916" y="3254" href="#P0"></use><use x="1753" y="3439" href="#P4"></use><use x="1866" y="3644" href="#P4"></use><use x="1917" y="3840" href="#P3"></use><use x="1756" y="4068" href="#P1"></use><use x="1851" y="4096" href="#P3"></use><use x="1780" y="4256" href="#P6"></use><use x="1903" y="4517" href="#P6"></use><use x="1839" y="4652" href="#P3"></use><use x="1782" y="4890" href="#P7"></use><use x="1847" y="4991" href="#P3"></use><use x="1833" y="5149" href="#P1"></use><use x="1931" y="-94" href="#P2"></use><use x="2010" y="-52" href="#P7"></use><use x="1956" y="205" href="#P3"></use><use x="2014" y="333" href="#P7"></use><use x="2061" y="461" href="#P4"></use><use x="2037" y="715" href="#P0"></use><use x="1974" y="767" href="#P3"></use><use x="2083" y="1059" href="#P6"></use><use x="2067" y="1186" href="#P7"></use><use x="2034" y="1352" href="#P1"></use><use x="2067" y="1576" href="#P5"></use><use x="2047" y="1683" href="#P2"></use><use x="2010" y="1845" href="#P5"></use><use x="2055" y="1979" href="#P7"></use><use x="2051" y="2151" href="#P2"></use><use x="2015" y="2416" href="#P6"></use><use x="1944" y="2455" href="#P3"></use><use x="2080" y="2623" href="#P4"></use><use x="1986" y="2830" href="#P2"></use><use x="1920" y="3054" href="#P7"></use><use x="2049" y="3107" href="#P0"></use><use x="2041" y="3339" href="#P1"></use><use x="2048" y="3501" href="#P4"></use><use x="2082" y="3605" href="#P3"></use><use x="1924" y="3776" href="#P7"></use><use x="2069" y="4016" href="#P0"></use><use x="1946" y="4244" href="#P4"></use><use x="2004" y="4322" href="#P5"></use><use x="1955" y="4535" href="#P2"></use><use x="2040" y="4706" href="#P1"></use><use x="2030" y="4905" href="#P0"></use><use x="2016" y="5050" href="#P5"></use><use x="2069" y="5092" href="#P6"></use><use x="2120" y="-196" href="#P0"></use><use x="2195" y="49" href="#P4"></use><use x="2147" y="165" href="#P3"></use><use x="2127" y="367" href="#P2"></use><use x="2092" y="517" href="#P1"></use><use x="2229" y="583" href="#P2"></use><use x="2137" y="889" href="#P3"></use><use x="2126" y="1069" href="#P4"></use><use x="2233" y="1165" href="#P2"></use><use x="2119" y="1290" href="#P7"></use><use x="2103" y="1523" href="#P5"></use><use x="2121" y="1728" href="#P2"></use><use x="2202" y="1782" href="#P4"></use><use x="2089" y="2053" href="#P3"></use><use x="2208" y="2192" href="#P2"></use><use x="2167" y="2303" href="#P2"></use><use x="2178" y="2480" href="#P5"></use><use x="2181" y="2709" href="#P4"></use><use x="2191" y="2836" href="#P3"></use><use x="2237" y="2931" href="#P6"></use><use x="2168" y="3138" href="#P1"></use><use x="2114" y="3279" href="#P4"></use><use x="2168" y="3482" href="#P5"></use><use x="2170" y="3624" href="#P1"></use><use x="2236" y="3907" href="#P2"></use><use x="2209" y="4080" href="#P4"></use><use x="2191" y="4115" href="#P1"></use><use x="2192" y="4369" href="#P2"></use><use x="2187" y="4582" href="#P5"></use><use x="2148" y="4725" href="#P7"></use><use x="2190" y="4852" href="#P1"></use><use x="2143" y="5082" href="#P0"></use><use x="2169" y="5246" href="#P1"></use><use x="2316" y="-167" href="#P0"></use><use x="2268" y="40" href="#P6"></use><use x="2277" y="227" href="#P5"></use><use x="2292" y="298" href="#P1"></use><use x="2340" y="501" href="#P2"></use><use x="2328" y="706" href="#P1"></use><use x="2262" y="778" href="#P0"></use><use x="2392" y="1044" href="#P6"></use><use x="2317" y="1209" href="#P2"></use><use x="2290" y="1380" href="#P0"></use><use x="2253" y="1422" href="#P6"></use><use x="2309" y="1637" href="#P2"></use><use x="2344" y="1797" href="#P1"></use><use x="2330" y="1939" href="#P1"></use><use x="2406" y="2217" href="#P5"></use><use x="2322" y="2335" href="#P4"></use><use x="2259" y="2469" href="#P6"></use><use x="2345" y="2715" href="#P2"></use><use x="2399" y="2914" href="#P5"></use><use x="2409" y="3079" href="#P4"></use><use x="2410" y="3141" href="#P7"></use><use x="2254" y="3256" href="#P0"></use><use x="2318" y="3429" href="#P3"></use><use x="2303" y="3642" href="#P3"></use><use x="2343" y="3818" href="#P3"></use><use x="2391" y="3920" href="#P1"></use><use x="2290" y="4134" href="#P6"></use><use x="2399" y="4380" href="#P3"></use><use x="2296" y="4560" href="#P2"></use><use x="2398" y="4743" href="#P7"></use><use x="2356" y="4791" href="#P2"></use><use x="2337" y="5019" href="#P7"></use><use x="2282" y="5203" href="#P3"></use><use x="2486" y="-249" href="#P6"></use><use x="2560" y="-68" href="#P3"></use><use x="2427" y="111" href="#P5"></use><use x="2540" y="364" href="#P4"></use><use x="2568" y="528" href="#P2"></use><use x="2457" y="608" href="#P2"></use><use x="2479" y="780" href="#P5"></use><use x="2419" y="954" href="#P3"></use><use x="2582" y="1221" href="#P3"></use><use x="2582" y="1408" href="#P7"></use><use x="2546" y="1442" href="#P7"></use><use x="2569" y="1610" href="#P6"></use><use x="2425" y="1848" href="#P1"></use><use x="2525" y="1919" href="#P0"></use><use x="2531" y="2227" href="#P0"></use><use x="2457" y="2344" href="#P0"></use><use x="2429" y="2426" href="#P2"></use><use x="2424" y="2619" href="#P4"></use><use x="2455" y="2896" href="#P6"></use><use x="2538" y="3043" href="#P7"></use><use x="2429" y="3225" href="#P4"></use><use x="2453" y="3318" href="#P0"></use><use x="2528" y="3427" href="#P4"></use><use x="2496" y="3612" href="#P1"></use><use x="2577" y="3759" href="#P3"></use><use x="2423" y="4036" href="#P5"></use><use x="2525" y="4208" href="#P0"></use><use x="2425" y="4374" href="#P7"></use><use x="2425" y="4431" href="#P5"></use><use x="2563" y="4745" href="#P1"></use><use x="2558" y="4785" href="#P3"></use><use x="2452" y="5012" href="#P3"></use><use x="2571" y="5210" href="#P1"></use><use x="2629" y="-101" href="#P0"></use><use x="2668" y="0" href="#P0"></use><use x="2616" y="203" href="#P2"></use><use x="2622" y="410" href="#P6"></use><use x="2617" y="559" href="#P0"></use><use x="2742" y="714" href="#P7"></use><use x="2691" y="770" href="#P1"></use><use x="2669" y="994" href="#P6"></use><use x="2603" y="1138" href="#P5"></use><use x="2694" y="1274" href="#P1"></use><use x="2652" y="1475" href="#P5"></use><use x="2722" y="1742" href="#P5"></use><use x="2661" y="1847" href="#P5"></use><use x="2685" y="1992" href="#P3"></use><use x="2600" y="2177" href="#P0"></use><use x="2709" y="2416" href="#P5"></use><use x="2649" y="2512" href="#P3"></use><use x="2600" y="2631" href="#P1"></use><use x="2610" y="2875" href="#P4"></use><use x="2748" y="2918" href="#P5"></use><use x="2692" y="3250" href="#P2"></use><use x="2585" y="3326" href="#P3"></use><use x="2589" y="3426" href="#P7"></use><use x="2694" y="3593" href="#P2"></use><use x="2716" y="3799" href="#P6"></use><use x="2609" y="4013" href="#P2"></use><use x="2649" y="4224" href="#P1"></use><use x="2601" y="4381" href="#P3"></use><use x="2600" y="4542" href="#P7"></use><use x="2635" y="4684" href="#P1"></use><use x="2738" y="4892" href="#P5"></use><use x="2750" y="5063" href="#P3"></use><use x="2653" y="5214" href="#P7"></use><use x="2859" y="-110" href="#P0"></use><use x="2858" y="51" href="#P0"></use><use x="2854" y="181" href="#P6"></use><use x="2908" y="409" href="#P1"></use><use x="2769" y="417" href="#P4"></use><use x="2889" y="596" href="#P2"></use><use x="2798" y="873" href="#P6"></use><use x="2766" y="1065" href="#P7"></use><use x="2914" y="1161" href="#P1"></use><use x="2787" y="1368" href="#P1"></use><use x="2799" y="1477" href="#P4"></use><use x="2770" y="1736" href="#P2"></use><use x="2902" y="1904" href="#P1"></use><use x="2793" y="1950" href="#P2"></use><use x="2803" y="2198" href="#P4"></use><use x="2814" y="2270" href="#P3"></use><use x="2910" y="2491" href="#P5"></use><use x="2866" y="2707" href="#P5"></use><use x="2754" y="2857" href="#P0"></use><use x="2874" y="3065" href="#P4"></use><use x="2882" y="3106" href="#P2"></use><use x="2760" y="3345" href="#P3"></use><use x="2866" y="3463" href="#P4"></use><use x="2850" y="3599" href="#P4"></use><use x="2823" y="3803" href="#P7"></use><use x="2853" y="4019" href="#P6"></use><use x="2879" y="4204" href="#P4"></use><use x="2840" y="4251" href="#P5"></use><use x="2873" y="4556" href="#P1"></use><use x="2877" y="4631" href="#P2"></use><use x="2866" y="4770" href="#P6"></use><use x="2849" y="4972" href="#P1"></use><use x="2842" y="5133" href="#P2"></use><use x="2916" y="-216" href="#P2"></use><use x="2982" y="29" href="#P5"></use><use x="3060" y="180" href="#P7"></use><use x="3051" y="279" href="#P2"></use><use x="2963" y="514" href="#P0"></use><use x="3014" y="657" href="#P2"></use><use x="3045" y="804" href="#P2"></use><use x="2937" y="970" href="#P4"></use><use x="2994" y="1088" href="#P7"></use><use x="3037" y="1382" href="#P5"></use><use x="2988" y="1564" href="#P1"></use><use x="3057" y="1714" href="#P4"></use><use x="3068" y="1916" href="#P0"></use><use x="2991" y="2011" href="#P0"></use><use x="3016" y="2107" href="#P5"></use><use x="3011" y="2300" href="#P5"></use><use x="3008" y="2420" href="#P5"></use><use x="3054" y="2726" href="#P4"></use><use x="2940" y="2751" href="#P2"></use><use x="2972" y="2990" href="#P5"></use><use x="2961" y="3162" href="#P2"></use><use x="3030" y="3349" href="#P7"></use><use x="3013" y="3445" href="#P2"></use><use x="2975" y="3628" href="#P7"></use><use x="3039" y="3903" href="#P1"></use><use x="2950" y="3956" href="#P6"></use><use x="3042" y="4220" href="#P7"></use><use x="3073" y="4301" href="#P1"></use><use x="2950" y="4568" href="#P4"></use><use x="2992" y="4732" href="#P3"></use><use x="3009" y="4809" href="#P1"></use><use x="2990" y="4961" href="#P3"></use><use x="2994" y="5194" href="#P3"></use><use x="3103" y="-99" href="#P7"></use><use x="3180" y="-13" href="#P0"></use><use x="3102" y="231" href="#P4"></use><use x="3243" y="257" href="#P4"></use><use x="3219" y="531" href="#P5"></use><use x="3189" y="592" href="#P4"></use><use x="3175" y="879" href="#P0"></use><use x="3227" y="1050" href="#P1"></use><use x="3193" y="1114" href="#P2"></use><use x="3221" y="1382" href="#P1"></use><use x="3107" y="1457" href="#P5"></use><use x="3247" y="1698" href="#P2"></use><use x="3215" y="1768" href="#P2"></use><use x="3174" y="1989" href="#P3"></use><use x="3228" y="2122" href="#P7"></use><use x="3212" y="2345" href="#P1"></use><use x="3210" y="2553" href="#P3"></use><use x="3172" y="2707" href="#P6"></use><use x="3092" y="2903" href="#P6"></use><use x="3107" y="3084" href="#P5"></use><use x="3145" y="3223" href="#P2"></use><use x="3182" y="3307" href="#P3"></use><use x="3111" y="3469" href="#P6"></use><use x="3245" y="3687" href="#P2"></use><use x="3224" y="3911" href="#P7"></use><use x="3211" y="3959" href="#P0"></use><use x="3220" y="4118" href="#P6"></use><use x="3090" y="4321" href="#P2"></use><use x="3160" y="4548" href="#P4"></use><use x="3085" y="4647" href="#P2"></use><use x="3236" y="4853" href="#P2"></use><use x="3155" y="5036" href="#P7"></use><use x="3187" y="5090" href="#P6"></use><use x="3310" y="-114" href="#P4"></use><use x="3291" y="-66" href="#P1"></use><use x="3274" y="130" href="#P1"></use><use x="3273" y="403" href="#P7"></use><use x="3412" y="520" href="#P2"></use><use x="3321" y="685" href="#P0"></use><use x="3396" y="843" href="#P0"></use><use x="3405" y="1010" href="#P0"></use><use x="3339" y="1184" href="#P4"></use><use x="3389" y="1260" href="#P0"></use><use x="3383" y="1527" href="#P6"></use><use x="3382" y="1603" href="#P0"></use><use x="3322" y="1779" href="#P1"></use><use x="3290" y="1986" href="#P0"></use><use x="3305" y="2220" href="#P0"></use><use x="3416" y="2278" href="#P1"></use><use x="3384" y="2517" href="#P6"></use><use x="3297" y="2608" href="#P5"></use><use x="3411" y="2871" href="#P7"></use><use x="3320" y="3055" href="#P7"></use><use x="3415" y="3118" href="#P7"></use><use x="3331" y="3298" href="#P6"></use><use x="3327" y="3563" href="#P5"></use><use x="3277" y="3679" href="#P0"></use><use x="3326" y="3824" href="#P0"></use><use x="3290" y="3928" href="#P4"></use><use x="3364" y="4191" href="#P1"></use><use x="3272" y="4268" href="#P1"></use><use x="3400" y="4459" href="#P6"></use><use x="3406" y="4739" href="#P1"></use><use x="3325" y="4786" href="#P6"></use><use x="3413" y="5043" href="#P6"></use><use x="3257" y="5157" href="#P2"></use><use x="3452" y="-95" href="#P3"></use><use x="3465" y="-38" href="#P0"></use><use x="3449" y="147" href="#P3"></use><use x="3509" y="345" href="#P6"></use><use x="3472" y="419" href="#P5"></use><use x="3428" y="739" href="#P7"></use><use x="3470" y="908" href="#P5"></use><use x="3507" y="1011" href="#P6"></use><use x="3456" y="1109" href="#P3"></use><use x="3517" y="1263" href="#P6"></use><use x="3503" y="1572" href="#P7"></use><use x="3417" y="1666" href="#P7"></use><use x="3505" y="1863" href="#P1"></use><use x="3558" y="2048" href="#P3"></use><use x="3490" y="2231" href="#P5"></use><use x="3581" y="2310" href="#P6"></use><use x="3483" y="2466" href="#P3"></use><use x="3547" y="2669" href="#P5"></use><use x="3521" y="2867" href="#P5"></use><use x="3548" y="3071" href="#P4"></use><use x="3579" y="3130" href="#P1"></use><use x="3465" y="3257" href="#P2"></use><use x="3520" y="3543" href="#P6"></use><use x="3480" y="3725" href="#P2"></use><use x="3577" y="3750" href="#P1"></use><use x="3485" y="3951" href="#P2"></use><use x="3451" y="4169" href="#P0"></use><use x="3518" y="4287" href="#P3"></use><use x="3517" y="4474" href="#P4"></use><use x="3420" y="4701" href="#P1"></use><use x="3534" y="4845" href="#P6"></use><use x="3418" y="5052" href="#P7"></use><use x="3511" y="5113" href="#P1"></use><use x="3634" y="-173" href="#P0"></use><use x="3680" y="14" href="#P1"></use><use x="3720" y="225" href="#P0"></use><use x="3654" y="393" href="#P5"></use><use x="3737" y="544" href="#P6"></use><use x="3747" y="656" href="#P7"></use><use x="3605" y="838" href="#P1"></use><use x="3626" y="1071" href="#P3"></use><use x="3635" y="1213" href="#P0"></use><use x="3735" y="1327" href="#P7"></use><use x="3591" y="1516" href="#P0"></use><use x="3743" y="1644" href="#P4"></use><use x="3611" y="1903" href="#P2"></use><use x="3719" y="1987" href="#P1"></use><use x="3649" y="2098" href="#P2"></use><use x="3722" y="2355" href="#P0"></use><use x="3660" y="2480" href="#P0"></use><use x="3731" y="2644" href="#P6"></use><use x="3747" y="2868" href="#P4"></use><use x="3728" y="2974" href="#P4"></use><use x="3662" y="3122" href="#P1"></use><use x="3683" y="3385" href="#P4"></use><use x="3739" y="3515" href="#P1"></use><use x="3653" y="3663" href="#P5"></use><use x="3744" y="3846" href="#P6"></use><use x="3657" y="3938" href="#P4"></use><use x="3688" y="4222" href="#P0"></use><use x="3638" y="4313" href="#P1"></use><use x="3619" y="4503" href="#P7"></use><use x="3730" y="4638" href="#P4"></use><use x="3646" y="4831" href="#P7"></use><use x="3617" y="5082" href="#P1"></use><use x="3592" y="5248" href="#P0"></use><use x="3870" y="-200" href="#P2"></use><use x="3800" y="21" href="#P3"></use><use x="3907" y="167" href="#P4"></use><use x="3844" y="332" href="#P2"></use><use x="3777" y="467" href="#P6"></use><use x="3853" y="609" href="#P1"></use><use x="3914" y="866" href="#P0"></use><use x="3846" y="998" href="#P5"></use><use x="3833" y="1237" href="#P2"></use><use x="3751" y="1371" href="#P3"></use><use x="3768" y="1563" href="#P6"></use><use x="3753" y="1741" href="#P2"></use><use x="3840" y="1906" href="#P0"></use><use x="3891" y="2081" href="#P3"></use><use x="3848" y="2122" href="#P5"></use><use x="3848" y="2380" href="#P4"></use><use x="3781" y="2463" href="#P1"></use><use x="3797" y="2692" href="#P1"></use><use x="3801" y="2861" href="#P7"></use><use x="3841" y="2920" href="#P1"></use><use x="3784" y="3221" href="#P6"></use><use x="3829" y="3323" href="#P2"></use><use x="3914" y="3445" href="#P0"></use><use x="3897" y="3705" href="#P0"></use><use x="3884" y="3792" href="#P5"></use><use x="3766" y="4033" href="#P5"></use><use x="3763" y="4238" href="#P1"></use><use x="3754" y="4369" href="#P6"></use><use x="3878" y="4544" href="#P0"></use><use x="3854" y="4665" href="#P3"></use><use x="3827" y="4778" href="#P0"></use><use x="3817" y="4982" href="#P0"></use><use x="3890" y="5096" href="#P0"></use><use x="3983" y="-121" href="#P5"></use><use x="4065" y="39" href="#P3"></use><use x="4023" y="211" href="#P6"></use><use x="4049" y="401" href="#P6"></use><use x="4006" y="422" href="#P2"></use><use x="4008" y="731" href="#P7"></use><use x="4024" y="896" href="#P0"></use><use x="3990" y="939" href="#P6"></use><use x="3995" y="1100" href="#P3"></use><use x="4056" y="1334" href="#P1"></use><use x="4016" y="1417" href="#P7"></use><use x="3931" y="1591" href="#P3"></use><use x="4013" y="1864" href="#P7"></use><use x="3977" y="2007" href="#P1"></use><use x="3998" y="2110" href="#P1"></use><use x="4030" y="2353" href="#P7"></use><use x="4056" y="2463" href="#P7"></use><use x="4026" y="2592" href="#P2"></use><use x="4082" y="2783" href="#P4"></use><use x="4029" y="3030" href="#P6"></use><use x="4061" y="3156" href="#P5"></use><use x="4042" y="3316" href="#P3"></use><use x="3950" y="3552" href="#P6"></use><use x="4005" y="3607" href="#P4"></use><use x="4028" y="3896" href="#P4"></use><use x="3928" y="3922" href="#P3"></use><use x="4039" y="4237" href="#P6"></use><use x="3924" y="4305" href="#P5"></use><use x="3995" y="4552" href="#P6"></use><use x="3919" y="4743" href="#P3"></use><use x="4041" y="4896" href="#P3"></use><use x="4073" y="5013" href="#P6"></use><use x="3949" y="5095" href="#P7"></use><use x="4147" y="-205" href="#P3"></use><use x="4195" y="-43" href="#P4"></use><use x="4154" y="124" href="#P2"></use><use x="4238" y="393" href="#P7"></use><use x="4109" y="573" href="#P6"></use><use x="4128" y="739" href="#P5"></use><use x="4164" y="842" href="#P3"></use><use x="4144" y="1027" href="#P4"></use><use x="4107" y="1115" href="#P6"></use><use x="4115" y="1264" href="#P6"></use><use x="4116" y="1532" href="#P3"></use><use x="4205" y="1588" href="#P0"></use><use x="4230" y="1898" href="#P0"></use><use x="4141" y="2044" href="#P2"></use><use x="4132" y="2136" href="#P1"></use><use x="4086" y="2281" href="#P2"></use><use x="4222" y="2515" href="#P3"></use><use x="4225" y="2683" href="#P4"></use><use x="4184" y="2855" href="#P3"></use><use x="4133" y="3015" href="#P2"></use><use x="4209" y="3133" href="#P4"></use><use x="4142" y="3378" href="#P3"></use><use x="4114" y="3452" href="#P6"></use><use x="4106" y="3699" href="#P7"></use><use x="4168" y="3785" href="#P1"></use><use x="4095" y="3958" href="#P3"></use><use x="4133" y="4102" href="#P4"></use><use x="4167" y="4364" href="#P4"></use><use x="4193" y="4495" href="#P2"></use><use x="4156" y="4650" href="#P0"></use><use x="4206" y="4758" href="#P2"></use><use x="4176" y="5005" href="#P5"></use><use x="4100" y="5206" href="#P7"></use><use x="4299" y="-232" href="#P3"></use><use x="4266" y="4" href="#P1"></use><use x="4373" y="108" href="#P1"></use><use x="4375" y="390" href="#P6"></use><use x="4399" y="479" href="#P4"></use><use x="4346" y="733" href="#P1"></use><use x="4256" y="863" href="#P2"></use><use x="4297" y="991" href="#P3"></use><use x="4340" y="1245" href="#P3"></use><use x="4303" y="1303" href="#P0"></use><use x="4389" y="1555" href="#P3"></use><use x="4287" y="1597" href="#P0"></use><use x="4405" y="1884" href="#P0"></use><use x="4309" y="1947" href="#P0"></use><use x="4341" y="2228" href="#P3"></use><use x="4389" y="2380" href="#P0"></use><use x="4282" y="2483" href="#P5"></use><use x="4383" y="2696" href="#P3"></use><use x="4407" y="2847" href="#P2"></use><use x="4297" y="2927" href="#P1"></use><use x="4273" y="3144" href="#P6"></use><use x="4328" y="3270" href="#P1"></use><use x="4349" y="3501" href="#P5"></use><use x="4291" y="3665" href="#P7"></use><use x="4323" y="3848" href="#P2"></use><use x="4412" y="4051" href="#P1"></use><use x="4260" y="4126" href="#P7"></use><use x="4399" y="4277" href="#P1"></use><use x="4369" y="4491" href="#P6"></use><use x="4346" y="4644" href="#P3"></use><use x="4328" y="4807" href="#P6"></use><use x="4339" y="5027" href="#P0"></use><use x="4359" y="5111" href="#P6"></use><use x="4435" y="-196" href="#P6"></use><use x="4506" y="-10" href="#P3"></use><use x="4495" y="160" href="#P4"></use><use x="4567" y="387" href="#P2"></use><use x="4494" y="558" href="#P4"></use><use x="4429" y="631" href="#P1"></use><use x="4580" y="840" href="#P7"></use><use x="4542" y="953" href="#P7"></use><use x="4437" y="1093" href="#P5"></use><use x="4445" y="1256" href="#P3"></use><use x="4449" y="1520" href="#P5"></use><use x="4558" y="1699" href="#P6"></use><use x="4494" y="1816" href="#P3"></use><use x="4558" y="2001" href="#P2"></use><use x="4537" y="2105" href="#P3"></use><use x="4431" y="2398" href="#P7"></use><use x="4504" y="2435" href="#P7"></use><use x="4538" y="2703" href="#P7"></use><use x="4478" y="2767" href="#P6"></use><use x="4445" y="2922" href="#P7"></use><use x="4490" y="3119" href="#P3"></use><use x="4525" y="3411" href="#P6"></use><use x="4569" y="3476" href="#P5"></use><use x="4495" y="3686" href="#P2"></use><use x="4528" y="3897" href="#P3"></use><use x="4477" y="3919" href="#P3"></use><use x="4441" y="4188" href="#P2"></use><use x="4432" y="4308" href="#P5"></use><use x="4462" y="4447" href="#P6"></use><use x="4484" y="4675" href="#P1"></use><use x="4549" y="4843" href="#P0"></use><use x="4436" y="4960" href="#P1"></use><use x="4454" y="5209" href="#P0"></use><use x="4741" y="-174" href="#P7"></use><use x="4692" y="77" href="#P3"></use><use x="4638" y="137" href="#P3"></use><use x="4623" y="305" href="#P6"></use><use x="4640" y="532" href="#P2"></use><use x="4713" y="636" href="#P7"></use><use x="4703" y="835" href="#P7"></use><use x="4698" y="922" href="#P3"></use><use x="4587" y="1165" href="#P2"></use><use x="4604" y="1385" href="#P1"></use><use x="4587" y="1419" href="#P2"></use><use x="4598" y="1598" href="#P5"></use><use x="4710" y="1763" href="#P0"></use><use x="4711" y="1955" href="#P3"></use><use x="4697" y="2250" href="#P0"></use><use x="4608" y="2287" href="#P2"></use><use x="4732" y="2424" href="#P5"></use><use x="4641" y="2674" href="#P7"></use><use x="4631" y="2818" href="#P7"></use><use x="4749" y="2963" href="#P7"></use><use x="4704" y="3164" href="#P5"></use><use x="4602" y="3338" href="#P2"></use><use x="4627" y="3425" href="#P4"></use><use x="4656" y="3651" href="#P1"></use><use x="4676" y="3871" href="#P6"></use><use x="4585" y="3935" href="#P4"></use><use x="4699" y="4111" href="#P1"></use><use x="4625" y="4274" href="#P0"></use><use x="4587" y="4509" href="#P2"></use><use x="4703" y="4698" href="#P2"></use><use x="4625" y="4801" href="#P7"></use><use x="4688" y="5035" href="#P4"></use><use x="4728" y="5226" href="#P6"></use><use x="4858" y="-108" href="#P0"></use><use x="4900" y="26" href="#P4"></use><use x="4805" y="195" href="#P6"></use><use x="4781" y="289" href="#P0"></use><use x="4848" y="452" href="#P7"></use><use x="4879" y="689" href="#P5"></use><use x="4877" y="848" href="#P5"></use><use x="4858" y="1024" href="#P5"></use><use x="4812" y="1246" href="#P2"></use><use x="4792" y="1310" href="#P3"></use><use x="4774" y="1510" href="#P7"></use><use x="4899" y="1652" href="#P0"></use><use x="4878" y="1799" href="#P0"></use><use x="4845" y="2022" href="#P5"></use><use x="4894" y="2187" href="#P7"></use><use x="4811" y="2344" href="#P5"></use><use x="4845" y="2514" href="#P3"></use><use x="4837" y="2627" href="#P6"></use><use x="4904" y="2771" href="#P1"></use><use x="4881" y="2953" href="#P6"></use><use x="4824" y="3181" href="#P6"></use><use x="4805" y="3352" href="#P7"></use><use x="4831" y="3571" href="#P6"></use><use x="4841" y="3604" href="#P5"></use><use x="4883" y="3750" href="#P3"></use><use x="4883" y="3996" href="#P0"></use><use x="4807" y="4148" href="#P7"></use><use x="4863" y="4292" href="#P2"></use><use x="4897" y="4499" href="#P3"></use><use x="4840" y="4665" href="#P3"></use><use x="4913" y="4803" href="#P4"></use><use x="4774" y="4996" href="#P5"></use><use x="4910" y="5169" href="#P5"></use><use x="5056" y="-205" href="#P6"></use><use x="5043" y="-33" href="#P0"></use><use x="5074" y="174" href="#P6"></use><use x="5075" y="364" href="#P1"></use><use x="4932" y="450" href="#P1"></use><use x="4994" y="616" href="#P5"></use><use x="5073" y="817" href="#P6"></use><use x="4953" y="997" href="#P2"></use><use x="5058" y="1226" href="#P4"></use><use x="4921" y="1335" href="#P6"></use><use x="5005" y="1512" href="#P3"></use><use x="5044" y="1744" href="#P4"></use><use x="5037" y="1873" href="#P4"></use><use x="5064" y="1923" href="#P3"></use><use x="4964" y="2231" href="#P4"></use><use x="4939" y="2262" href="#P1"></use><use x="5066" y="2495" href="#P6"></use><use x="4976" y="2632" href="#P2"></use><use x="4963" y="2848" href="#P4"></use><use x="4947" y="3065" href="#P3"></use><use x="5048" y="3102" href="#P7"></use><use x="4931" y="3305" href="#P7"></use><use x="4966" y="3516" href="#P1"></use><use x="4997" y="3649" href="#P1"></use><use x="4983" y="3766" href="#P0"></use><use x="4988" y="3993" href="#P2"></use><use x="4950" y="4166" href="#P2"></use><use x="5013" y="4381" href="#P1"></use><use x="5082" y="4494" href="#P0"></use><use x="5034" y="4641" href="#P1"></use><use x="5036" y="4828" href="#P7"></use><use x="5079" y="5021" href="#P7"></use><use x="5003" y="5128" href="#P6"></use><use x="5148" y="-125" href="#P3"></use><use x="5219" y="53" href="#P5"></use><use x="5120" y="96" href="#P7"></use><use x="5119" y="408" href="#P7"></use><use x="5192" y="538" href="#P7"></use><use x="5131" y="746" href="#P0"></use><use x="5198" y="774" href="#P4"></use><use x="5157" y="940" href="#P6"></use><use x="5237" y="1174" href="#P5"></use><use x="5187" y="1250" href="#P5"></use><use x="5240" y="1494" href="#P4"></use><use x="5172" y="1646" href="#P7"></use><use x="5124" y="1869" href="#P4"></use><use x="5122" y="1919" href="#P4"></use><use x="5246" y="2201" href="#P5"></use><use x="5149" y="2407" href="#P3"></use><use x="5098" y="2435" href="#P5"></use><use x="5218" y="2719" href="#P4"></use><use x="5105" y="2785" href="#P2"></use><use x="5236" y="2939" href="#P0"></use><use x="5224" y="3162" href="#P7"></use><use x="5238" y="3335" href="#P5"></use><use x="5118" y="3574" href="#P3"></use><use x="5191" y="3646" href="#P0"></use><use x="5118" y="3864" href="#P4"></use><use x="5198" y="3979" href="#P3"></use><use x="5181" y="4200" href="#P4"></use><use x="5137" y="4276" href="#P2"></use><use x="5193" y="4417" href="#P3"></use><use x="5185" y="4662" href="#P0"></use><use x="5091" y="4785" href="#P3"></use><use x="5137" y="4964" href="#P4"></use><use x="5193" y="5143" href="#P1"></use></g></svg>
